<?xml version="1.0" encoding="UTF-8" standalone="no"?>
<!-- Created with Inkscape (http://www.inkscape.org/) -->

<svg
   width="34mm"
   height="38mm"
   viewBox="0 0 34 38"
   version="1.1"
   id="svg1"
   xml:space="preserve"
   inkscape:version="1.4.2 (1:1.4.2+202505120738+ebf0e940d0)"
   sodipodi:docname="JPilot-C_pinout.svg"
   xmlns:inkscape="http://www.inkscape.org/namespaces/inkscape"
   xmlns:sodipodi="http://sodipodi.sourceforge.net/DTD/sodipodi-0.dtd"
   xmlns:xlink="http://www.w3.org/1999/xlink"
   xmlns="http://www.w3.org/2000/svg"
   xmlns:svg="http://www.w3.org/2000/svg"><sodipodi:namedview
     id="namedview1"
     pagecolor="#ffffff"
     bordercolor="#000000"
     borderopacity="0.25"
     inkscape:showpageshadow="2"
     inkscape:pageopacity="0.0"
     inkscape:pagecheckerboard="0"
     inkscape:deskcolor="#d1d1d1"
     inkscape:document-units="mm"
     showguides="true"
     inkscape:zoom="4.086974"
     inkscape:cx="80.499655"
     inkscape:cy="87.47303"
     inkscape:window-width="1850"
     inkscape:window-height="1016"
     inkscape:window-x="70"
     inkscape:window-y="27"
     inkscape:window-maximized="1"
     inkscape:current-layer="layer1" /><defs
     id="defs1"><marker
       style="overflow:visible"
       id="ConcaveTriangle"
       refX="0"
       refY="0"
       orient="auto-start-reverse"
       inkscape:stockid="Concave triangle arrow"
       markerWidth="1.5"
       markerHeight="1.5"
       viewBox="0 0 1 1"
       inkscape:isstock="true"
       inkscape:collect="always"
       preserveAspectRatio="xMidYMid"><path
         transform="scale(0.7)"
         d="M -2,-4 9,0 -2,4 c 2,-2.33 2,-5.66 0,-8 z"
         style="fill:context-stroke;fill-rule:evenodd;stroke:none"
         id="path7" /></marker></defs><g
     inkscape:label="Layer 1"
     inkscape:groupmode="layer"
     id="layer1"><rect
       style="fill:none;stroke:#000000;stroke-width:0.15;stroke-dasharray:none"
       id="rect1"
       width="32"
       height="32"
       x="1"
       y="1.0000001" /><circle
       style="fill:none;stroke:#000000;stroke-width:0.15;stroke-dasharray:none"
       id="path3"
       cx="2.3779149"
       cy="31.62208"
       r="1.1" /><path
       style="fill:#1a1a1a;stroke:none;stroke-width:0.0243103;stroke-dasharray:none"
       d="m 4.5993473,20.733345 c -0.016856,-0.0043 -0.036637,-0.0109 -0.043957,-0.01465 -0.00746,-0.0038 -0.020314,-0.007 -0.02889,-0.007 -0.00865,0 -0.029234,-0.0086 -0.045935,-0.01915 -0.01669,-0.01054 -0.032373,-0.01915 -0.034848,-0.01915 -0.00841,0 -0.087773,-0.08032 -0.087773,-0.08882 0,-0.0046 -0.00699,-0.01468 -0.015328,-0.0223 -0.00841,-0.0076 -0.015328,-0.02036 -0.015328,-0.02829 0,-0.0079 -0.00533,-0.02238 -0.011608,-0.03214 -0.016891,-0.02579 -0.025645,-0.187437 -0.010661,-0.196919 0.00592,-0.0037 0.061535,-0.007 0.1235578,-0.007 0.1256877,-1.32e-4 0.1286324,0.0011 0.1286324,0.0551 0,0.03075 0.036779,0.104948 0.057769,0.116556 0.00829,0.0046 0.016761,0.01007 0.018869,0.01215 0.00213,0.0021 0.01149,0.0082 0.020966,0.01341 0.020457,0.01137 0.1369512,0.01297 0.143793,0.0019 0.00261,-0.0041 0.011253,-0.0077 0.019236,-0.0077 0.016311,0 0.053836,-0.05057 0.067671,-0.09118 0.0064,-0.01854 0.00888,-0.151414 0.00888,-0.460904 0,-0.38946 0.00118,-0.43534 0.012118,-0.439504 0.01579,-0.006 0.2358463,-0.006 0.2516406,0 0.010898,0.0041 0.012129,0.0501 0.012129,0.440196 0,0.282096 -0.00272,0.437214 -0.0077,0.44028 -0.00415,0.0026 -0.0077,0.01854 -0.0077,0.03542 0,0.04553 -0.02908,0.134689 -0.051716,0.158636 -0.00533,0.0056 -0.00959,0.01247 -0.00959,0.01533 -1.66e-5,0.009 -0.033261,0.04279 -0.065125,0.06618 -0.016856,0.01238 -0.032408,0.02499 -0.034564,0.02805 -0.00213,0.0031 -0.013385,0.0079 -0.02497,0.0109 -0.011608,0.003 -0.022968,0.0084 -0.025277,0.0121 -0.00225,0.0037 -0.012627,0.0069 -0.02292,0.0069 -0.010305,0 -0.018703,0.0031 -0.018703,0.007 0,0.01618 -0.2488558,0.02825 -0.3027061,0.01465 z m 4.205919,-0.0015 c -0.026024,-0.0046 -0.049868,-0.01113 -0.053007,-0.01423 -0.0032,-0.0031 -0.01528,-0.0058 -0.026971,-0.0058 -0.011727,0 -0.023205,-0.0031 -0.025586,-0.0071 -0.00237,-0.0038 -0.018088,-0.0094 -0.034943,-0.01218 -0.016832,-0.0028 -0.03062,-0.0077 -0.03062,-0.0109 0,-0.0031 -0.00948,-0.01042 -0.021073,-0.01625 -0.011608,-0.0058 -0.035452,-0.0219 -0.053031,-0.03577 -0.017578,-0.01387 -0.034363,-0.02522 -0.037312,-0.02522 -0.00794,0 -0.064864,-0.05837 -0.064864,-0.06657 0,-0.0038 -0.012082,-0.01876 -0.026829,-0.03306 -0.014747,-0.0143 -0.026829,-0.03056 -0.026829,-0.03615 0,-0.0056 -0.00865,-0.02381 -0.019154,-0.0405 -0.010542,-0.01669 -0.019154,-0.03732 -0.019154,-0.04584 0,-0.0085 -0.00344,-0.01548 -0.0077,-0.01548 -0.00415,0 -0.0077,-0.0084 -0.0077,-0.0187 0,-0.0103 -0.00308,-0.02056 -0.00675,-0.02285 -0.010542,-0.0065 -0.026036,-0.145894 -0.025704,-0.2305 3.411e-4,-0.08726 0.014392,-0.211011 0.025171,-0.221856 0.00391,-0.0039 0.00734,-0.01674 0.00734,-0.02829 0,-0.01149 0.00344,-0.02313 0.0077,-0.02575 0.00415,-0.0026 0.0077,-0.01295 0.0077,-0.02299 0,-0.01007 0.0032,-0.02024 0.00723,-0.02268 0.00391,-0.0025 0.011976,-0.01385 0.017756,-0.02536 0.0058,-0.01149 0.015493,-0.02954 0.021499,-0.04008 0.016275,-0.02852 0.1317311,-0.145606 0.1435869,-0.145606 0.00569,0 0.02157,-0.0086 0.035381,-0.01915 0.013823,-0.01054 0.028452,-0.01915 0.032551,-0.01915 0.00403,0 0.025289,-0.0086 0.047132,-0.01915 0.021842,-0.01054 0.046421,-0.01915 0.05463,-0.01915 0.00817,0 0.017033,-0.0034 0.019651,-0.0077 0.00261,-0.0041 0.021582,-0.0077 0.042145,-0.0077 0.020575,0 0.039539,-0.0034 0.042145,-0.0077 0.00284,-0.0046 0.052296,-0.0077 0.122615,-0.0077 0.070313,0 0.1197852,0.0031 0.122615,0.0077 0.00261,0.0041 0.018123,0.0077 0.034481,0.0077 0.016358,0 0.031875,0.0034 0.034481,0.0077 0.00261,0.0041 0.013065,0.0077 0.023228,0.0077 0.010187,0 0.036696,0.0083 0.05893,0.01836 0.022233,0.01007 0.045628,0.02047 0.051953,0.02305 0.035689,0.01457 0.099096,0.05966 0.1381285,0.09827 0.028523,0.02819 0.084112,0.09969 0.084112,0.10817 0,0.0024 0.00865,0.01708 0.019154,0.0326 0.010542,0.01553 0.019154,0.03481 0.019154,0.04287 0,0.0081 0.00699,0.0289 0.015328,0.04634 0.00841,0.01745 0.015328,0.04165 0.015328,0.05378 0,0.01213 0.00355,0.02886 0.00805,0.03717 0.02003,0.03743 0.00592,0.351936 -0.017045,0.378173 -0.00344,0.0039 -0.0064,0.01501 -0.0064,0.02445 0,0.0095 -0.00344,0.01929 -0.0077,0.02191 -0.00415,0.0026 -0.0077,0.01102 -0.0077,0.01854 0,0.0076 -0.00865,0.0265 -0.019154,0.04204 -0.010542,0.01553 -0.019154,0.03174 -0.019154,0.03608 0,0.0164 -0.091113,0.118273 -0.1421464,0.15894 -0.012437,0.0098 -0.033238,0.02266 -0.04622,0.0283 -0.01297,0.0057 -0.028061,0.01565 -0.03351,0.02221 -0.00545,0.0066 -0.015517,0.01197 -0.022375,0.01197 -0.00699,2.5e-5 -0.02234,0.0053 -0.034434,0.01149 -0.01207,0.0064 -0.031319,0.01149 -0.042785,0.01149 -0.01149,0 -0.023418,0.0026 -0.026569,0.0058 -0.021653,0.02165 -0.2525693,0.03114 -0.3468235,0.01424 z m 0.2388857,-0.23455 c 0.00261,-0.0041 0.013231,-0.0077 0.023607,-0.0077 0.010424,0 0.032515,-0.0086 0.049205,-0.01915 0.01669,-0.01054 0.033119,-0.01915 0.036495,-0.01915 0.00853,0 0.087772,-0.08408 0.1002928,-0.106428 0.00569,-0.01007 0.016631,-0.02964 0.024425,-0.04352 0.00782,-0.01386 0.016548,-0.04623 0.01945,-0.07192 0.00296,-0.02569 0.00829,-0.04856 0.011976,-0.05083 0.00888,-0.0054 0.00865,-0.154374 -2.926e-4,-0.159865 -0.00379,-0.0024 -0.00924,-0.02239 -0.011975,-0.04453 -0.00486,-0.03949 -0.017827,-0.08248 -0.027042,-0.09004 -0.00261,-0.0021 -0.010898,-0.01717 -0.018478,-0.0335 -0.00758,-0.01632 -0.020338,-0.03137 -0.028334,-0.03346 -0.00805,-0.002 -0.014534,-0.0081 -0.014534,-0.01315 0,-0.0228 -0.1115694,-0.09617 -0.146233,-0.09617 -0.00758,0 -0.01592,-0.0034 -0.018538,-0.0077 -0.00272,-0.0044 -0.042074,-0.0077 -0.091966,-0.0077 -0.04988,0 -0.089253,0.0032 -0.091966,0.0077 -0.00261,0.0041 -0.012461,0.0077 -0.021914,0.0077 -0.00948,0 -0.020456,0.0031 -0.024448,0.0068 -0.00391,0.0037 -0.019793,0.01078 -0.035085,0.01561 -0.026225,0.0084 -0.1216425,0.09424 -0.1216425,0.109485 0,0.0037 -0.0064,0.01357 -0.014108,0.0219 -0.014119,0.01515 -0.039527,0.09333 -0.039527,0.121588 0,0.0083 -0.00344,0.01712 -0.0077,0.01972 -0.00959,0.006 -0.010187,0.175397 -6.717e-4,0.193605 0.00379,0.0073 0.011371,0.03353 0.016761,0.05827 0.00533,0.02473 0.014309,0.04948 0.019841,0.05502 0.00557,0.0056 0.010068,0.01647 0.010068,0.02427 0,0.0078 0.023169,0.03774 0.051503,0.0665 0.051041,0.05179 0.1116049,0.08899 0.1448993,0.08899 0.00948,0 0.019414,0.0034 0.022008,0.0077 0.00272,0.0044 0.042074,0.0077 0.091966,0.0077 0.04988,0 0.089241,-0.0032 0.091966,-0.0077 z m -3.5884613,-0.392753 0.0019,-0.607329 0.2605577,-0.0023 c 0.2534043,-0.0021 0.4286639,0.0064 0.4440436,0.02176 0.00403,0.004 0.020232,0.0075 0.035997,0.0075 0.015766,0 0.030738,0.0033 0.033273,0.0075 0.00249,0.004 0.017412,0.01351 0.033024,0.02092 0.0416,0.0197 0.092499,0.06389 0.1165444,0.101182 0.0064,0.0097 0.017081,0.02518 0.023939,0.03419 0.00687,0.009 0.018538,0.03532 0.026,0.0585 0.00746,0.02318 0.016524,0.04814 0.020125,0.05546 0.00355,0.0073 0.00663,0.03039 0.00663,0.05128 0,0.02088 0.00344,0.0401 0.0077,0.0427 0.00415,0.0026 0.0077,0.01468 0.0077,0.02683 0,0.01215 -0.00344,0.02421 -0.0077,0.02683 -0.00415,0.0026 -0.0077,0.01502 -0.0077,0.02758 0,0.02447 -0.026616,0.118144 -0.038959,0.137176 -0.00403,0.0064 -0.00948,0.01753 -0.011975,0.02491 -0.00249,0.0075 -0.00758,0.01341 -0.011253,0.01341 -0.00367,0 -0.00687,0.0046 -0.00687,0.01054 0,0.0094 -0.036578,0.04606 -0.08243,0.08278 -0.027658,0.02215 -0.086067,0.0523 -0.1013115,0.0523 -0.00805,0 -0.016737,0.0034 -0.019343,0.0077 -0.00261,0.0041 -0.01464,0.0077 -0.026782,0.0077 -0.012129,0 -0.031745,0.0038 -0.043614,0.0086 -0.012414,0.0049 -0.099618,0.01066 -0.2054967,0.01341 l -0.1839231,0.0047 -0.00201,0.185838 -0.00201,0.185839 H 5.5877202 5.4537007 Z m 0.6314101,-0.02857 c 0.043614,-0.02127 0.06073,-0.03807 0.085036,-0.08341 0.01149,-0.02151 0.013184,-0.135943 0.00201,-0.142815 -0.00415,-0.0026 -0.0077,-0.01137 -0.0077,-0.01962 0,-0.0082 -0.00284,-0.01488 -0.0064,-0.01488 -0.00344,0 -0.011253,-0.0091 -0.017104,-0.02008 -0.00628,-0.01161 -0.028511,-0.02855 -0.053031,-0.04024 -0.04089,-0.01951 -0.047629,-0.02024 -0.2051283,-0.02264 l -0.1628482,-0.0025 v 0.17936 c 0,0.09865 0.00225,0.181657 0.00521,0.184466 0.00284,0.0028 0.074411,0.0051 0.1591301,0.0051 h 0.1540224 z m 0.6099124,0.626888 c -0.00734,-0.0073 -0.00948,-0.145779 -0.00948,-0.605444 v -0.596072 l 0.017235,-0.0043 c 0.00948,-0.0024 0.070704,-0.0032 0.1360261,-0.002 l 0.1187784,0.0021 v 0.605413 0.605413 l -0.1266507,0.002 c -0.092025,0.0014 -0.1292163,-4.63e-4 -0.1360272,-0.0073 z m 0.6011481,0.0039 c -0.00284,-0.0028 -0.00521,-0.274877 -0.00521,-0.604593 0,-0.539584 0.00118,-0.59995 0.012118,-0.604136 0.01791,-0.007 0.2430126,-0.0054 0.2541257,0.0015 0.00746,0.0047 0.00995,0.1142 0.01149,0.488428 l 0.0019,0.48238 0.3065393,0.0038 0.3065369,0.0038 0.00213,0.116864 0.00213,0.116876 H 7.7464941 c -0.2438714,0 -0.445702,-0.0023 -0.4485117,-0.0051 z M 10.082551,20.225183 V 19.738552 H 9.8915903 c -0.1050309,0 -0.1964138,-0.002 -0.2030803,-0.0046 -0.018159,-0.007 -0.018159,-0.228958 0,-0.235926 0.015837,-0.0062 1.017474,-0.0062 1.033313,0 0.01031,0.0039 0.01213,0.02178 0.01213,0.118779 0,0.06277 -8.96e-4,0.114839 -0.0019,0.115716 -0.0011,8.96e-4 -0.08813,0.0034 -0.193504,0.0058 l -0.191585,0.0041 -0.0019,0.484714 -0.0019,0.484713 h -0.13021 -0.130221 z M 5.1856013,19.218248 c 0,-0.0037 -0.026734,-0.0089 -0.059392,-0.01125 -0.095176,-0.0071 -0.1819343,-0.02439 -0.2183048,-0.0438 -0.00734,-0.0039 -0.020054,-0.0072 -0.028286,-0.0072 -0.00829,0 -0.017104,-0.0034 -0.01971,-0.0077 -0.00261,-0.0041 -0.00983,-0.0077 -0.016192,-0.0077 -0.012591,0 -0.058787,-0.02169 -0.1064167,-0.04996 -0.016856,-0.0099 -0.042726,-0.02419 -0.057473,-0.03152 -0.014747,-0.0075 -0.037182,-0.02136 -0.049821,-0.03118 -0.012639,-0.0098 -0.026462,-0.02037 -0.030726,-0.02348 -0.1219932,-0.08873 -0.2809112,-0.264751 -0.3371946,-0.373479 -0.00663,-0.01264 -0.018443,-0.03334 -0.026426,-0.04598 -0.00794,-0.01264 -0.014771,-0.02731 -0.015067,-0.0326 -3.163e-4,-0.0053 -0.00924,-0.02748 -0.019722,-0.04932 -0.010542,-0.02184 -0.019154,-0.04429 -0.019154,-0.04988 0,-0.0056 -0.00308,-0.01614 -0.00687,-0.02346 -0.010542,-0.02068 -0.025041,-0.07871 -0.029234,-0.116769 -0.00201,-0.01896 -0.00699,-0.03776 -0.010779,-0.04177 -0.00379,-0.0039 -0.00699,-0.03742 -0.00699,-0.07427 0,-0.03684 -0.00332,-0.06912 -0.0077,-0.07174 -0.00415,-0.0026 -0.0077,-0.03537 -0.0077,-0.07281 0,-0.03743 0.00332,-0.07019 0.0077,-0.07281 0.00415,-0.0026 0.0077,-0.03697 0.0077,-0.07663 0,-0.03967 0.00332,-0.07402 0.0077,-0.07663 0.00415,-0.0026 0.0077,-0.01984 0.0077,-0.03832 0,-0.01847 0.00308,-0.03551 0.00699,-0.03787 0.00379,-0.0024 0.00936,-0.02157 0.012224,-0.04268 0.00296,-0.02111 0.011608,-0.05151 0.019379,-0.06756 0.0077,-0.01605 0.016429,-0.03846 0.019284,-0.04982 0.00284,-0.01137 0.00829,-0.02252 0.011987,-0.02484 0.00367,-0.0023 0.00687,-0.01263 0.00687,-0.02292 0,-0.0103 0.00332,-0.0187 0.0077,-0.0187 0.00415,0 0.00758,-0.006 0.00758,-0.01341 -1.125e-4,-0.0157 0.085688,-0.188104 0.100127,-0.201166 0.00237,-0.0021 0.010187,-0.01591 0.01746,-0.03066 0.016749,-0.03396 0.02908,-0.05371 0.042785,-0.06852 0.00604,-0.0065 0.018976,-0.02951 0.028961,-0.05129 0.00995,-0.02178 0.023205,-0.04381 0.0294,-0.04897 0.00628,-0.0051 0.011371,-0.01326 0.011371,-0.01801 2.25e-5,-0.0047 0.018929,-0.03732 0.042027,-0.07236 0.023086,-0.03505 0.047535,-0.07541 0.05431,-0.08969 0.00687,-0.01428 0.017175,-0.03 0.02311,-0.03492 0.00592,-0.0049 0.010779,-0.01489 0.010779,-0.02215 0,-0.0073 0.00723,-0.01971 0.015955,-0.02764 0.00877,-0.0079 0.02099,-0.02645 0.027114,-0.04115 0.00616,-0.01469 0.013788,-0.02856 0.01701,-0.03081 0.00308,-0.0023 0.011857,-0.01617 0.019071,-0.03093 0.00734,-0.01475 0.017436,-0.03352 0.022601,-0.0417 0.024685,-0.03921 0.056916,-0.09469 0.067067,-0.115395 0.00628,-0.01264 0.013101,-0.02472 0.015351,-0.02683 0.00794,-0.0073 0.057366,-0.08789 0.070479,-0.114709 0.015351,-0.03135 0.02356,-0.04463 0.057638,-0.09324 0.013693,-0.01953 0.02491,-0.04108 0.02491,-0.0479 0,-0.0069 0.0032,-0.01238 0.00723,-0.01238 0.00391,0 0.00959,-0.0077 0.012603,-0.01723 0.00296,-0.0095 0.017022,-0.03445 0.031176,-0.05546 0.014143,-0.02101 0.025716,-0.04203 0.025716,-0.04671 0,-0.0046 0.00699,-0.01473 0.015328,-0.02236 0.00841,-0.0076 0.015328,-0.01851 0.015328,-0.02418 0,-0.0057 0.00261,-0.0103 0.00592,-0.0103 0.00308,0 0.00936,-0.0068 0.013409,-0.01481 0.043815,-0.08572 0.056549,-0.107933 0.078249,-0.136347 0.013811,-0.01809 0.025112,-0.03493 0.025112,-0.03743 0,-0.0095 0.026723,-0.06097 0.037182,-0.07169 0.00604,-0.0062 0.015576,-0.02229 0.02125,-0.03588 0.00569,-0.01359 0.013456,-0.02663 0.017306,-0.029 0.00379,-0.0024 0.018076,-0.02589 0.03165,-0.05225 0.013575,-0.02637 0.032112,-0.05828 0.041186,-0.07093 0.00912,-0.01264 0.021605,-0.03334 0.027848,-0.04598 0.00628,-0.01264 0.016927,-0.0292 0.023761,-0.03678 0.00687,-0.0076 0.01881,-0.02827 0.026616,-0.04598 0.00782,-0.01771 0.016358,-0.03391 0.019,-0.03602 0.00628,-0.005 0.04115,-0.06075 0.066416,-0.10612 0.010897,-0.0196 0.025882,-0.04643 0.033261,-0.05963 0.00734,-0.01319 0.025787,-0.0412 0.04089,-0.06223 0.015114,-0.02103 0.027469,-0.04171 0.027469,-0.04596 0,-0.0043 0.00521,-0.01202 0.01149,-0.01727 0.0064,-0.0052 0.01149,-0.01387 0.01149,-0.01916 0,-0.01225 0.048577,-0.09323 0.068903,-0.114862 0.00853,-0.0091 0.015399,-0.02201 0.015399,-0.02887 0,-0.0069 0.00344,-0.01461 0.0077,-0.0172 0.00415,-0.0026 0.014404,-0.01949 0.022624,-0.03751 0.00817,-0.01802 0.020267,-0.03722 0.026806,-0.04263 0.00663,-0.0054 0.011857,-0.01342 0.011857,-0.01778 0,-0.0044 0.00794,-0.01858 0.017685,-0.03163 0.00971,-0.01304 0.023619,-0.03578 0.030857,-0.05053 0.015328,-0.0312 0.028725,-0.05327 0.03974,-0.06551 0.00426,-0.0047 0.019793,-0.03252 0.034446,-0.06163 0.014641,-0.02913 0.032823,-0.05979 0.040427,-0.06817 0.00758,-0.0084 0.018396,-0.0239 0.023975,-0.03448 0.02568,-0.04866 0.052936,-0.09713 0.064556,-0.114874 0.021807,-0.03326 0.031022,-0.0491 0.04468,-0.07682 0.00734,-0.01475 0.015482,-0.02853 0.018218,-0.03064 0.00474,-0.0036 0.019438,-0.02805 0.065646,-0.109212 0.011371,-0.02002 0.023217,-0.0364 0.026273,-0.0364 0.00308,0 0.00746,-0.006 0.00983,-0.01341 0.00237,-0.0075 0.014806,-0.03064 0.027611,-0.05174 0.012816,-0.02107 0.027587,-0.04693 0.032847,-0.05747 0.00533,-0.01054 0.020551,-0.0347 0.033972,-0.05371 0.013432,-0.019 0.026806,-0.04401 0.029696,-0.05555 0.00296,-0.01149 0.00841,-0.021 0.012118,-0.021 0.00367,0 0.00687,-0.0047 0.00687,-0.01054 0,-0.0058 0.00569,-0.01524 0.012532,-0.02096 0.00699,-0.0057 0.018526,-0.02425 0.025822,-0.04117 0.00734,-0.01693 0.020634,-0.03734 0.029613,-0.04537 0.009,-0.0081 0.016334,-0.01896 0.016334,-0.02432 0,-0.0053 0.00865,-0.01996 0.019154,-0.03249 0.010542,-0.01253 0.019154,-0.02599 0.019154,-0.02991 0,-0.0039 0.00865,-0.01524 0.019154,-0.02514 0.010542,-0.0098 0.019154,-0.02118 0.019154,-0.02505 0,-0.0038 0.019829,-0.02765 0.044064,-0.05282 0.024235,-0.02517 0.045485,-0.0498 0.047215,-0.05469 0.00367,-0.01042 0.020658,-0.02836 0.026853,-0.02836 0.00237,0 0.025088,-0.01956 0.050531,-0.04346 0.025443,-0.0239 0.052604,-0.04717 0.060351,-0.05173 0.0077,-0.0045 0.030939,-0.02113 0.051538,-0.03683 0.020611,-0.01569 0.041505,-0.02863 0.046409,-0.02874 0.00486,-1.05e-4 0.010068,-0.0028 0.01149,-0.0059 0.00296,-0.0068 0.034493,-0.02425 0.10984,-0.06128 0.029506,-0.0145 0.059628,-0.02948 0.066949,-0.03331 0.00746,-0.0038 0.018526,-0.007 0.02491,-0.007 0.0064,0 0.011608,-0.0031 0.011608,-0.0069 0,-0.0037 0.015446,-0.0091 0.034304,-0.01198 0.018869,-0.0028 0.036329,-0.0084 0.038769,-0.01237 0.00249,-0.0039 0.014652,-0.0073 0.027102,-0.0073 0.012461,0 0.028618,-0.0031 0.035938,-0.0069 0.03582,-0.01823 0.056928,-0.0232 0.1205966,-0.02851 0.1481969,-0.01232 0.4500171,-0.0036 0.4604823,0.01338 0.00225,0.0036 0.01592,0.0066 0.03043,0.0066 0.014499,0 0.026367,0.0034 0.026367,0.0077 0,0.0041 0.00912,0.0077 0.020042,0.0077 0.023584,0 0.086493,0.01937 0.1282012,0.03946 0.016204,0.0078 0.032491,0.0142 0.036187,0.0142 0.010897,0 0.095034,0.04095 0.097841,0.04758 0.0013,0.0033 0.00711,0.006 0.012473,0.006 0.00545,0 0.014214,0.0051 0.019462,0.01149 0.00533,0.0064 0.015363,0.01149 0.022482,0.01149 0.00723,0 0.019627,0.0062 0.0278,0.01368 0.00817,0.0075 0.037289,0.02964 0.064686,0.04913 0.050721,0.03607 0.1930758,0.174374 0.2242285,0.217846 0.00948,0.01317 0.031757,0.04312 0.049608,0.06658 0.036376,0.0478 0.061275,0.08679 0.068169,0.106808 0.00249,0.0075 0.0077,0.01341 0.011371,0.01341 0.00367,0 0.00687,0.0045 0.00687,0.01007 0,0.0056 0.00604,0.01693 0.013409,0.02532 0.016631,0.01894 0.028298,0.03738 0.045521,0.07192 0.00746,0.01475 0.019852,0.03371 0.027777,0.04215 0.00794,0.0084 0.01746,0.02222 0.021191,0.03066 0.00367,0.0084 0.01534,0.02913 0.025787,0.04598 0.010424,0.01685 0.024981,0.04272 0.032302,0.05747 0.00746,0.01475 0.015707,0.02855 0.018632,0.03066 0.00296,0.0021 0.012805,0.01824 0.021985,0.03588 0.00924,0.01763 0.021392,0.03596 0.027161,0.04077 0.0058,0.0047 0.012568,0.01815 0.015114,0.02968 0.00249,0.01149 0.011371,0.02585 0.019663,0.0318 0.00829,0.006 0.015043,0.0185 0.015043,0.02787 0,0.0095 0.00332,0.01908 0.00746,0.02163 0.016583,0.01019 0.041245,0.08009 0.032598,0.09226 -0.00995,0.01395 -0.046776,0.0343 -0.06214,0.0343 -0.00829,0 -0.016109,0.0026 -0.017519,0.0058 -0.00438,0.0097 -0.06657,0.03933 -0.093482,0.04437 -0.023122,0.0043 -0.028239,0.0017 -0.053528,-0.02788 -0.015387,-0.01797 -0.027966,-0.03852 -0.027966,-0.04569 0,-0.0072 -0.00509,-0.01731 -0.01149,-0.02255 -0.0064,-0.0053 -0.01149,-0.01353 -0.01149,-0.01842 0,-0.0049 -0.00699,-0.01382 -0.015328,-0.01992 -0.00841,-0.0062 -0.015328,-0.01503 -0.015328,-0.01991 0,-0.0049 -0.00509,-0.01317 -0.01149,-0.01842 -0.0064,-0.0053 -0.01149,-0.01469 -0.01149,-0.02098 0,-0.0064 -0.012082,-0.0279 -0.026829,-0.04799 -0.014747,-0.0201 -0.026829,-0.03997 -0.026829,-0.04416 0,-0.0041 -0.00557,-0.01221 -0.012295,-0.01782 -0.00687,-0.0057 -0.015446,-0.01723 -0.019272,-0.02585 -0.00379,-0.0086 -0.013823,-0.026 -0.02221,-0.03864 -0.00841,-0.01264 -0.020125,-0.03334 -0.026107,-0.04598 -0.00604,-0.01264 -0.01804,-0.03061 -0.026817,-0.03992 -0.00877,-0.0094 -0.01592,-0.01898 -0.01592,-0.0215 0,-0.0025 -0.01778,-0.03282 -0.039504,-0.06736 -0.071734,-0.114092 -0.088815,-0.136483 -0.1590329,-0.208437 -0.1024486,-0.104972 -0.1481176,-0.144868 -0.188474,-0.16465 -0.00841,-0.0041 -0.029127,-0.0161 -0.045983,-0.02659 -0.034943,-0.02176 -0.07877,-0.0425 -0.089798,-0.0425 -0.00403,0 -0.016607,-0.0065 -0.027812,-0.0143 -0.011253,-0.0078 -0.030679,-0.01626 -0.043318,-0.01864 -0.044621,-0.0084 -0.099665,-0.02376 -0.1034555,-0.0288 -0.00841,-0.01113 -0.095105,-0.01741 -0.2337343,-0.01696 -0.1507365,4.87e-4 -0.2246348,0.0062 -0.237186,0.01811 -0.00403,0.0038 -0.014558,0.007 -0.023441,0.007 -0.00888,0 -0.022861,0.005 -0.031046,0.01125 -0.00817,0.0063 -0.02253,0.01137 -0.031887,0.01149 -0.00948,1.35e-4 -0.028334,0.0066 -0.042145,0.01423 -0.013811,0.0077 -0.043365,0.02049 -0.065658,0.02844 -0.022281,0.0079 -0.047144,0.02062 -0.055246,0.02815 -0.00805,0.0076 -0.021156,0.0137 -0.029021,0.0137 -0.00782,0 -0.022411,0.0086 -0.032314,0.01915 -0.00983,0.01054 -0.020871,0.01915 -0.024389,0.01915 -0.00344,0 -0.017223,0.01031 -0.030454,0.02299 -0.013231,0.01264 -0.026628,0.02299 -0.029791,0.02299 -0.00734,0 -0.1384011,0.133595 -0.1482681,0.151226 -0.00415,0.0075 -0.015861,0.0221 -0.026024,0.03266 -0.010187,0.01054 -0.02311,0.02983 -0.028784,0.0428 -0.00569,0.01297 -0.015671,0.02806 -0.022221,0.03351 -0.00663,0.0054 -0.011987,0.01466 -0.011987,0.02047 0,0.0058 -0.00284,0.01054 -0.0064,0.01054 -0.00344,0 -0.013859,0.01515 -0.023098,0.03364 -0.00936,0.0185 -0.021842,0.03783 -0.028002,0.04294 -0.00616,0.0051 -0.020599,0.02876 -0.0321,0.05257 -0.01149,0.0238 -0.02311,0.045 -0.025834,0.04711 -0.0045,0.0034 -0.020243,0.0303 -0.058018,0.09898 -0.00794,0.0144 -0.019568,0.03259 -0.025893,0.04044 -0.015517,0.01926 -0.042145,0.06438 -0.06105,0.103432 -0.00853,0.01765 -0.019,0.03424 -0.023228,0.03685 -0.00415,0.0026 -0.0077,0.01007 -0.0077,0.0167 0,0.0066 -0.010305,0.02374 -0.022991,0.03814 -0.012639,0.0144 -0.022991,0.03069 -0.022991,0.03622 0,0.0056 -0.00865,0.02005 -0.019142,0.0323 -0.010542,0.01225 -0.019154,0.02769 -0.019154,0.03434 -4.7e-6,0.0068 -0.00865,0.02017 -0.019165,0.03008 -0.010542,0.0098 -0.019154,0.0227 -0.019154,0.02843 0,0.0058 -0.020694,0.04295 -0.045983,0.08269 -0.025289,0.03974 -0.045983,0.07554 -0.045983,0.07955 0,0.004 -0.00261,0.0085 -0.0058,0.0098 -0.00308,0.0013 -0.015719,0.02152 -0.027919,0.0447 -0.012201,0.02318 -0.027753,0.04904 -0.034588,0.05747 -0.00687,0.0084 -0.019011,0.0274 -0.027078,0.04214 -0.00805,0.01475 -0.016631,0.02855 -0.019059,0.03066 -0.00237,0.0021 -0.014747,0.02453 -0.027398,0.04982 -0.012639,0.02529 -0.032479,0.05731 -0.044064,0.07115 -0.011608,0.01384 -0.021072,0.03153 -0.021072,0.03929 0,0.0078 -0.00509,0.01842 -0.01149,0.02367 -0.0064,0.0053 -0.01149,0.0143 -0.01149,0.0201 0,0.0058 -0.00308,0.01054 -0.00687,0.01054 -0.00367,0 -0.00888,0.006 -0.011253,0.01341 -0.0045,0.01356 -0.00734,0.01804 -0.045177,0.07599 -0.011608,0.01768 -0.021072,0.03543 -0.021072,0.03942 0,0.0039 -0.00509,0.01149 -0.01149,0.0168 -0.0064,0.0053 -0.01149,0.01549 -0.01149,0.02274 0,0.0073 -0.00604,0.01869 -0.013409,0.0254 -0.00746,0.0068 -0.020315,0.02535 -0.028736,0.04142 -0.00841,0.01607 -0.021357,0.0359 -0.028736,0.04408 -0.00746,0.0082 -0.013409,0.02068 -0.013409,0.0278 0,0.0072 -0.00521,0.01722 -0.01149,0.02247 -0.0064,0.0053 -0.01149,0.0143 -0.01149,0.0201 0,0.0058 -0.00344,0.01054 -0.0077,0.01054 -0.00415,0 -0.0077,0.004 -0.0077,0.009 0,0.0049 -0.00474,0.01443 -0.010779,0.02107 -0.010661,0.01207 -0.028807,0.04255 -0.064165,0.107885 -0.010187,0.01896 -0.021061,0.03621 -0.024022,0.03832 -0.00296,0.0021 -0.011134,0.01609 -0.018005,0.03107 -0.00699,0.01497 -0.019722,0.0336 -0.028334,0.04143 -0.00865,0.0078 -0.015683,0.01817 -0.015683,0.02304 0,0.0078 -0.024626,0.05104 -0.069993,0.122892 -0.00794,0.01264 -0.016595,0.02902 -0.01913,0.0364 -0.00249,0.0075 -0.00734,0.01341 -0.010542,0.01341 -0.0032,0 -0.00805,0.006 -0.010661,0.01341 -0.00261,0.0075 -0.015043,0.03065 -0.027564,0.05174 -0.012532,0.02107 -0.027765,0.04866 -0.033818,0.06131 -0.00616,0.01264 -0.01746,0.02989 -0.025289,0.03832 -0.00782,0.0084 -0.020279,0.02812 -0.027623,0.04374 -0.00746,0.01564 -0.016725,0.03048 -0.020824,0.03302 -0.00403,0.0025 -0.00746,0.0098 -0.00746,0.01636 0,0.0065 -0.00723,0.02092 -0.015801,0.03212 -0.00877,0.01125 -0.033178,0.04967 -0.054393,0.08551 -0.021215,0.03582 -0.041707,0.06629 -0.045497,0.0677 -0.00379,0.0013 -0.00699,0.0072 -0.00699,0.01278 0,0.01284 -0.022624,0.05559 -0.039847,0.07529 -0.00723,0.0082 -0.018466,0.02636 -0.025112,0.04036 -0.00675,0.014 -0.015446,0.02753 -0.019544,0.03007 -0.00403,0.0025 -0.00746,0.01125 -0.00746,0.01944 0,0.0082 -0.0077,0.02367 -0.017235,0.03447 -0.02067,0.02356 -0.047274,0.06631 -0.06413,0.103076 -0.00687,0.01475 -0.014676,0.02855 -0.017602,0.03064 -0.00296,0.0021 -0.011371,0.01591 -0.018857,0.03066 -0.022127,0.04374 -0.032254,0.0604 -0.045699,0.07528 -0.00711,0.0077 -0.012733,0.0181 -0.012733,0.02305 0,0.0049 -0.00308,0.009 -0.00699,0.009 -0.00379,0 -0.010542,0.0095 -0.015103,0.02107 -0.0045,0.01161 -0.016891,0.03487 -0.027516,0.05174 -0.010661,0.01685 -0.021688,0.03582 -0.024555,0.04215 -0.00284,0.0064 -0.00734,0.01322 -0.00959,0.01533 -0.00486,0.0043 -0.016868,0.02503 -0.039788,0.06902 -0.00853,0.01628 -0.02035,0.03366 -0.026403,0.03869 -0.00604,0.005 -0.011016,0.01222 -0.011016,0.016 0,0.0038 -0.00865,0.02054 -0.019154,0.03723 -0.010542,0.01669 -0.019154,0.03403 -0.019154,0.0385 0,0.0045 -0.00865,0.01745 -0.019154,0.02882 -0.010542,0.01137 -0.019154,0.02501 -0.019154,0.03031 0,0.0053 -0.00261,0.0096 -0.00592,0.0096 -0.0064,0 -0.00971,0.0057 -0.043697,0.07345 -0.012497,0.02493 -0.026877,0.04962 -0.031958,0.05484 -0.00521,0.0053 -0.013397,0.02246 -0.01849,0.03832 -0.00509,0.01585 -0.01361,0.03398 -0.018917,0.04031 -0.014807,0.0176 -0.042027,0.08158 -0.042027,0.09874 0,0.0084 -0.00332,0.01742 -0.0077,0.02003 -0.00415,0.0026 -0.0077,0.01431 -0.0077,0.026 0,0.01173 -0.00237,0.02368 -0.00533,0.02663 -0.014676,0.01468 -0.032728,0.09846 -0.032823,0.15237 -6.51e-5,0.03441 -0.0032,0.05939 -0.00782,0.05939 -0.010187,0 -0.010187,0.158467 0,0.164765 0.00415,0.0026 0.0077,0.02781 0.00782,0.05601 1.019e-4,0.04635 0.019296,0.130727 0.032823,0.144257 0.00296,0.003 0.00533,0.01322 0.00533,0.0228 0,0.0096 0.00332,0.01956 0.0077,0.02216 0.00415,0.0026 0.0077,0.01054 0.0077,0.0177 7.94e-5,0.01216 0.013705,0.04043 0.062305,0.129231 0.011134,0.02034 0.027504,0.04357 0.0364,0.0516 0.00888,0.0081 0.016157,0.0186 0.016157,0.02347 0,0.01298 0.1153835,0.128085 0.1751221,0.174673 0.057603,0.04493 0.069981,0.05316 0.1084305,0.07211 0.014747,0.0073 0.028547,0.01559 0.030655,0.01848 0.00213,0.003 0.031425,0.01483 0.065136,0.02651 0.033711,0.01173 0.064592,0.02415 0.068595,0.02772 0.00391,0.0034 0.023536,0.0065 0.043436,0.0065 0.022103,0 0.037395,0.0037 0.03935,0.0095 0.00249,0.0076 0.4922154,0.0095 2.4142439,0.0095 1.918623,0 2.4130073,-0.0019 2.4206297,-0.0095 0.00533,-0.0053 0.022731,-0.0095 0.038805,-0.0095 0.016074,0 0.035216,-0.0028 0.042524,-0.0064 0.00734,-0.0034 0.024792,-0.01212 0.038841,-0.01915 0.01404,-0.0071 0.03301,-0.01286 0.04214,-0.01296 0.0092,-9.3e-5 0.02524,-0.007 0.03577,-0.01516 0.01054,-0.0083 0.02433,-0.01519 0.03064,-0.01541 0.0064,-2.32e-4 0.02529,-0.01054 0.04215,-0.023 0.01686,-0.01241 0.03755,-0.02572 0.04598,-0.02955 0.0084,-0.0038 0.03137,-0.02116 0.05099,-0.03847 0.01962,-0.01732 0.03944,-0.03151 0.04406,-0.03151 0.0046,0 0.0084,-0.0051 0.0084,-0.01149 0,-0.0064 0.004,-0.01149 0.0091,-0.01149 0.0094,0 0.05994,-0.05143 0.05994,-0.06093 0,-0.003 0.0086,-0.01347 0.01915,-0.02336 0.01054,-0.0098 0.01915,-0.02258 0.01915,-0.02816 0,-0.0056 0.0027,-0.01019 0.006,-0.01019 0.0086,0 0.06292,-0.08234 0.06292,-0.09542 0,-0.006 0.0033,-0.01302 0.0075,-0.01556 0.004,-0.0025 0.01305,-0.0174 0.01988,-0.03302 0.0069,-0.01564 0.01889,-0.04148 0.0268,-0.05745 0.0079,-0.01597 0.01666,-0.04615 0.01944,-0.06706 0.0027,-0.02091 0.0081,-0.03801 0.01173,-0.03801 0.0036,0 0.0068,-0.01523 0.0068,-0.03384 0,-0.01882 0.0039,-0.03516 0.0089,-0.0368 0.01233,-0.004 0.01216,-0.294548 -1.7e-4,-0.306886 -0.0047,-0.0047 -0.0088,-0.02162 -0.0088,-0.03738 0,-0.01577 -0.003,-0.03049 -0.0066,-0.03273 -0.0036,-0.0023 -0.0085,-0.02226 -0.01078,-0.04453 -0.0024,-0.02226 -0.01197,-0.05598 -0.02133,-0.07494 -0.0095,-0.01896 -0.01979,-0.04139 -0.02306,-0.04982 -0.01406,-0.03625 -0.04954,-0.108004 -0.05744,-0.116177 -0.0046,-0.0049 -0.01801,-0.0273 -0.0295,-0.04982 -0.02119,-0.04148 -0.033,-0.06187 -0.08121,-0.140126 -0.01475,-0.02395 -0.03026,-0.04943 -0.03448,-0.05662 -0.0041,-0.0072 -0.01542,-0.02389 -0.02491,-0.03709 -0.0095,-0.01321 -0.01725,-0.02726 -0.01725,-0.03122 0,-0.0039 -0.007,-0.01344 -0.01533,-0.02107 -0.0084,-0.0076 -0.01534,-0.01765 -0.01536,-0.02226 -1.8e-5,-0.0046 -0.01054,-0.02392 -0.02346,-0.04288 -0.01289,-0.01896 -0.02666,-0.04138 -0.03061,-0.04982 -0.0089,-0.01879 -0.01908,-0.03535 -0.05128,-0.08241 -0.01369,-0.02003 -0.02491,-0.03986 -0.02491,-0.04406 0,-0.0041 -0.0026,-0.0076 -0.0059,-0.0076 -0.0032,0 -0.01186,-0.01293 -0.01919,-0.02874 -0.01528,-0.03294 -0.02818,-0.05412 -0.04225,-0.06945 -0.0054,-0.0059 -0.01665,-0.02326 -0.02498,-0.03865 -0.0084,-0.01536 -0.01944,-0.03474 -0.02466,-0.04308 -0.039741,-0.06335 -0.059321,-0.0972 -0.059321,-0.102602 0,-0.0034 -0.00723,-0.01281 -0.015908,-0.02074 -0.00877,-0.0079 -0.022802,-0.02829 -0.031212,-0.04525 -0.03094,-0.06244 -0.039468,-0.07716 -0.053706,-0.09288 -0.00805,-0.0089 -0.020658,-0.0278 -0.02812,-0.04214 -0.017389,-0.03346 -0.034754,-0.06336 -0.039646,-0.06824 -0.00332,-0.0033 -0.018514,-0.02984 -0.041588,-0.0728 -0.0045,-0.0084 -0.00995,-0.01704 -0.012248,-0.01915 -0.00213,-0.0021 -0.00995,-0.0132 -0.017247,-0.02464 -0.026889,-0.04225 -0.015174,-0.05886 0.071071,-0.100802 0.023181,-0.01125 0.050768,-0.02554 0.06131,-0.03171 0.038248,-0.02238 0.079659,-0.01161 0.100056,0.02595 0.01894,0.03491 0.027161,0.04811 0.062791,0.10085 0.0158,0.02338 0.02874,0.04627 0.02874,0.05084 0,0.0046 0.0052,0.01265 0.01161,0.01796 0.0064,0.0053 0.0174,0.02211 0.02441,0.03735 0.0071,0.01522 0.02076,0.03743 0.03051,0.04935 0.0097,0.01186 0.01773,0.02593 0.01773,0.03113 0,0.0052 0.0069,0.01682 0.01523,0.02581 0.0084,0.009 0.02239,0.0301 0.03115,0.04691 0.0088,0.01681 0.02087,0.03467 0.02692,0.03969 0.006,0.005 0.01102,0.01269 0.01102,0.01703 0,0.0044 0.0078,0.0186 0.0174,0.03163 0.0095,0.01304 0.02243,0.03407 0.02857,0.04671 0.0062,0.01264 0.01901,0.03365 0.02857,0.04671 0.0095,0.01303 0.0174,0.02663 0.0174,0.03017 0,0.0034 0.0065,0.01357 0.01437,0.02227 0.0079,0.0088 0.02382,0.03307 0.03538,0.05414 0.01161,0.02107 0.03529,0.06082 0.05269,0.08835 0.01742,0.02752 0.03826,0.06287 0.04629,0.07855 0.0081,0.01568 0.01691,0.0285 0.01971,0.0285 0.0028,0 0.01281,0.01545 0.02223,0.03432 0.0095,0.01887 0.02002,0.03609 0.02355,0.03827 0.0034,0.0021 0.01406,0.01863 0.02337,0.03658 0.0094,0.01793 0.01934,0.03434 0.02226,0.03644 0.003,0.0021 0.01125,0.0159 0.01854,0.03066 0.01495,0.03031 0.0224,0.0428 0.05489,0.09183 0.03382,0.05108 0.04376,0.06939 0.105991,0.195546 0.05535,0.112209 0.06763,0.142658 0.07796,0.193414 0.0028,0.01365 0.0083,0.02679 0.01213,0.02919 0.0038,0.0024 0.0071,0.018 0.0071,0.03468 0,0.01667 0.0031,0.03631 0.0071,0.04361 0.01266,0.02394 0.03132,0.172598 0.03131,0.249304 -2.4e-5,0.07647 -0.01845,0.22069 -0.03127,0.244782 -0.0038,0.0075 -0.0071,0.02695 -0.0071,0.04361 0,0.01667 -0.0031,0.03218 -0.0069,0.03449 -0.0037,0.0022 -0.0091,0.01967 -0.01197,0.03859 -0.0028,0.01892 -0.0084,0.0364 -0.01238,0.03886 -0.0039,0.0025 -0.0073,0.01054 -0.0073,0.01791 0,0.02546 -0.0894,0.193054 -0.137942,0.258594 -0.01475,0.01992 -0.03026,0.04166 -0.03448,0.04832 -0.0144,0.02273 -0.183901,0.19208 -0.192314,0.192135 -0.0046,3.1e-5 -0.0146,0.007 -0.02219,0.01529 -0.0076,0.0084 -0.0314,0.02638 -0.05292,0.03998 -0.02152,0.01361 -0.04084,0.02675 -0.04295,0.02919 -0.0021,0.0025 -0.02624,0.01549 -0.05363,0.02901 -0.0274,0.01352 -0.06017,0.03144 -0.07281,0.03982 -0.01264,0.0084 -0.02919,0.01527 -0.03678,0.0153 -0.0076,2.9e-5 -0.02806,0.007 -0.04551,0.01539 -0.01745,0.0084 -0.0395,0.01533 -0.04899,0.01533 -0.0095,0 -0.01914,0.0031 -0.02143,0.0069 -0.0023,0.0037 -0.03006,0.0092 -0.061701,0.01214 -0.03165,0.003 -0.059486,0.0085 -0.061867,0.0124 -0.00237,0.0038 -0.033439,0.0071 -0.06901,0.0071 -0.038011,0 -0.064686,0.0031 -0.064686,0.0077 0,0.0051 -0.7714564,0.0077 -2.2990381,0.0077 -1.3460738,0 -2.2990381,-0.0028 -2.2990381,-0.0069 z m 1.4215712,-0.48361 c -0.00284,-0.0045 -0.047949,-0.0077 -0.1096623,-0.0076 -0.1222905,2.4e-5 -0.3900724,-0.02022 -0.4094381,-0.03096 -0.00746,-0.004 -0.026284,-0.0076 -0.042145,-0.0079 -0.033889,-7.3e-4 -0.1250847,-0.01642 -0.1361303,-0.02343 -0.00415,-0.0027 -0.032681,-0.0073 -0.063265,-0.0103 -0.030572,-0.0031 -0.057496,-0.0086 -0.059842,-0.01235 -0.00237,-0.0038 -0.017839,-0.007 -0.034457,-0.007 -0.016607,0 -0.030205,-0.0028 -0.030205,-0.0063 0,-0.0069 -0.074079,-0.03206 -0.093908,-0.03206 -0.00675,0 -0.034848,-0.01208 -0.062661,-0.02683 -0.027812,-0.01475 -0.055814,-0.02683 -0.062258,-0.02683 -0.00651,0 -0.019094,-0.007 -0.028156,-0.01533 -0.00912,-0.0084 -0.022269,-0.01533 -0.0294,-0.01533 -0.00723,0 -0.017235,-0.0051 -0.022482,-0.01149 -0.00533,-0.0064 -0.013006,-0.01149 -0.017258,-0.01149 -0.00426,0 -0.024543,-0.01208 -0.045059,-0.02683 -0.020539,-0.01475 -0.039385,-0.02683 -0.041884,-0.02683 -0.00663,0 -0.1123749,-0.108169 -0.1236941,-0.126447 -0.027149,-0.04379 -0.063301,-0.124957 -0.063301,-0.142131 0,-0.01078 -0.00367,-0.02329 -0.00829,-0.02785 -0.00817,-0.0082 -0.00604,-0.08966 0.0045,-0.163385 0.00569,-0.04014 0.057792,-0.151932 0.080322,-0.172311 0.00853,-0.0077 0.015458,-0.01747 0.015458,-0.02175 0,-0.0043 0.00865,-0.01667 0.019035,-0.02754 0.087015,-0.09055 0.1269681,-0.129819 0.1487063,-0.146244 0.013942,-0.01054 0.034493,-0.02645 0.045675,-0.03538 0.011253,-0.009 0.046184,-0.03285 0.077811,-0.05314 0.031615,-0.0203 0.058622,-0.03972 0.060019,-0.04315 0.0013,-0.0033 0.00592,-0.0063 0.010068,-0.0063 0.011727,0 0.094382,-0.04018 0.097237,-0.04729 0.0013,-0.0034 0.00924,-0.0064 0.017353,-0.0064 0.00817,0 0.021688,-0.0043 0.030122,-0.0095 0.013444,-0.0084 0.017614,-0.0069 0.033901,0.01341 0.010187,0.01264 0.02298,0.0316 0.028357,0.04213 0.00533,0.01054 0.015932,0.02832 0.023465,0.0395 0.02972,0.04417 0.018206,0.06099 -0.07646,0.111581 -0.028393,0.01517 -0.060777,0.03395 -0.071971,0.04171 -0.011253,0.0078 -0.023513,0.01414 -0.027398,0.01414 -0.00379,0 -0.015162,0.0086 -0.025064,0.01915 -0.00983,0.01054 -0.022032,0.01915 -0.026971,0.01915 -0.00486,0 -0.015221,0.007 -0.022849,0.01533 -0.00758,0.0084 -0.017697,0.01533 -0.022364,0.01533 -0.00462,0 -0.039563,0.03018 -0.077527,0.06706 -0.070988,0.06895 -0.095519,0.09677 -0.095519,0.108359 0,0.0036 -0.00521,0.0109 -0.01149,0.01617 -0.0064,0.0052 -0.01149,0.01774 -0.01149,0.02777 0,0.0099 -0.00261,0.01822 -0.0058,0.01822 -0.010661,0 -0.024863,0.06062 -0.024863,0.106393 0,0.03562 0.00497,0.05492 0.023382,0.09017 0.022447,0.04305 0.090047,0.117646 0.1065945,0.117646 0.00438,0 0.00794,0.0027 0.00794,0.0059 0,0.0032 0.012082,0.01241 0.026829,0.02037 0.014747,0.0079 0.026829,0.01736 0.026829,0.02091 0,0.0034 0.00841,0.0065 0.018514,0.0065 0.010187,0 0.019675,0.0026 0.021072,0.0058 0.00391,0.009 0.058811,0.03256 0.075608,0.03256 0.00829,0 0.015067,0.0034 0.015067,0.0077 0,0.0041 0.00699,0.0077 0.015328,0.0077 0.00841,0 0.015328,0.0034 0.015328,0.0077 0,0.0041 0.00474,0.0077 0.010661,0.0077 0.013503,0 0.088602,0.02219 0.1061325,0.03135 0.00734,0.0038 0.021783,0.007 0.032124,0.007 0.010305,0 0.020824,0.0032 0.023276,0.0073 0.00249,0.0039 0.028594,0.0096 0.058101,0.01251 0.029494,0.003 0.055494,0.0083 0.057745,0.01198 0.00225,0.0036 0.015292,0.0068 0.028961,0.0068 0.013657,0 0.02812,0.003 0.032124,0.0066 0.00746,0.0068 0.098611,0.01927 0.2410155,0.03318 0.044253,0.0043 0.1595825,0.0095 0.2562804,0.01125 0.1021288,0.0019 0.1797275,0.0066 0.1851561,0.01113 0.0064,0.0052 0.011016,0.0051 0.014309,-2.92e-4 0.0032,-0.0053 0.076448,-0.0081 0.2139813,-0.0081 0.1149571,0 0.2115862,-0.0026 0.2147276,-0.0058 0.00308,-0.0031 0.052853,-0.0096 0.1104915,-0.0145 0.1976611,-0.01651 0.2317502,-0.0204 0.2357633,-0.02689 0.00213,-0.0036 0.018763,-0.0065 0.036779,-0.0065 0.018016,0 0.035322,-0.0026 0.038461,-0.0058 0.00497,-0.005 0.084183,-0.01629 0.209511,-0.02968 0.022127,-0.0024 0.040238,-0.007 0.040238,-0.01019 0,-0.0032 0.016382,-0.0083 0.0364,-0.01113 0.084219,-0.012 0.1466927,-0.02413 0.1520313,-0.02951 0.00308,-0.0031 0.015268,-0.0058 0.026971,-0.0058 0.011727,0 0.023382,-0.0034 0.026,-0.0077 0.00261,-0.0041 0.018123,-0.0077 0.034481,-0.0077 0.016358,0 0.031721,-0.0031 0.034161,-0.0072 0.00237,-0.0039 0.024176,-0.0094 0.048352,-0.01186 0.024164,-0.0026 0.049939,-0.0081 0.057248,-0.01202 0.00746,-0.004 0.021286,-0.0073 0.031046,-0.0073 0.00971,0 0.021002,-0.003 0.025005,-0.0065 0.00391,-0.0034 0.027966,-0.0123 0.053256,-0.01941 0.025289,-0.0072 0.056572,-0.01629 0.069507,-0.02035 0.012947,-0.004 0.029317,-0.0075 0.0364,-0.0075 0.00711,0 0.012864,-0.0034 0.012864,-0.0077 0,-0.0041 0.00533,-0.0077 0.011987,-0.0077 0.014593,0 0.086422,-0.0214 0.104794,-0.03121 0.00746,-0.0039 0.020243,-0.0072 0.028736,-0.0072 0.00853,0 0.015434,-0.0034 0.015434,-0.0077 0,-0.0041 0.00841,-0.0077 0.018703,-0.0077 0.010305,0 0.020836,-0.0034 0.023442,-0.0077 0.00261,-0.0041 0.010068,-0.0077 0.016548,-0.0077 0.01149,0 0.02016,-0.0033 0.096419,-0.03742 0.019971,-0.009 0.040131,-0.0162 0.044822,-0.0162 0.010424,0 0.040131,-0.01307 0.1487632,-0.06548 0.046362,-0.02236 0.093446,-0.04294 0.1046163,-0.04571 0.011253,-0.0028 0.02767,-0.01186 0.036637,-0.02024 0.019154,-0.01785 0.037644,-0.01622 0.049513,0.0044 0.00462,0.0081 0.017969,0.02499 0.029554,0.03754 0.011608,0.01253 0.021072,0.02549 0.021072,0.02877 0,0.0032 0.00426,0.01054 0.00948,0.01612 0.028428,0.03015 0.030703,0.03606 0.01855,0.0482 -0.00651,0.0065 -0.013859,0.01173 -0.016512,0.01173 -0.011727,0 -0.071367,0.03105 -0.080274,0.04177 -0.00545,0.0066 -0.014937,0.01186 -0.021144,0.01186 -0.00628,0 -0.022174,0.0057 -0.035464,0.01259 -0.013302,0.007 -0.031082,0.01617 -0.039504,0.02056 -0.00841,0.0044 -0.025668,0.01274 -0.038319,0.01856 -0.012639,0.0058 -0.028973,0.0138 -0.036305,0.01776 -0.00734,0.0039 -0.017128,0.0072 -0.021819,0.0072 -0.00474,0 -0.017649,0.0062 -0.028843,0.01368 -0.011253,0.0075 -0.041032,0.02 -0.066309,0.02773 -0.025289,0.0077 -0.059771,0.02034 -0.076626,0.02804 -0.016856,0.0077 -0.050484,0.01998 -0.074707,0.02731 -0.024235,0.0073 -0.044064,0.01613 -0.044064,0.01959 0,0.0033 -0.010068,0.0063 -0.022541,0.0063 -0.01239,0 -0.024425,0.0031 -0.026734,0.0069 -0.00225,0.0037 -0.016737,0.0092 -0.032053,0.01201 -0.015316,0.0028 -0.033463,0.0081 -0.040321,0.01137 -0.021783,0.0109 -0.066629,0.02341 -0.083449,0.02341 -0.009,0 -0.018384,0.0034 -0.020978,0.0077 -0.00261,0.0041 -0.012295,0.0077 -0.021534,0.0077 -0.00924,2.6e-5 -0.026675,0.0053 -0.038734,0.01149 -0.012082,0.0064 -0.031946,0.01149 -0.044159,0.01149 -0.012224,0 -0.028203,0.0031 -0.035524,0.0072 -0.029009,0.01548 -0.055139,0.02201 -0.1742396,0.04345 -0.022269,0.004 -0.04712,0.01298 -0.074613,0.02698 -0.00734,0.0037 -0.028428,0.0069 -0.04693,0.0069 -0.018502,0 -0.048293,0.0051 -0.066203,0.01149 -0.017922,0.0064 -0.0425,0.01149 -0.054606,0.01149 -0.012118,0 -0.022032,0.0031 -0.022032,0.0071 0,0.0038 -0.023276,0.0089 -0.05174,0.01113 -0.084859,0.0068 -0.196261,0.02124 -0.2126606,0.0278 -0.018751,0.0075 -0.1437254,0.02304 -0.1851751,0.02304 -0.016583,0 -0.033439,0.0031 -0.037443,0.0071 -0.00853,0.0082 -0.3612437,0.03134 -0.4762151,0.03132 -0.043815,-8e-6 -0.08018,0.0033 -0.082833,0.0076 -0.00272,0.0044 -0.044632,0.0077 -0.099618,0.0077 -0.054997,0 -0.096881,-0.0032 -0.099618,-0.0077 z m 0.7451649,-0.351844 c -0.022103,-0.0248 -0.020125,-0.007 -0.036258,-0.330203 -0.0045,-0.09063 -0.01149,-0.170753 -0.015624,-0.178072 -0.00403,-0.0075 -0.00734,-0.0373 -0.00734,-0.06661 0,-0.02932 -0.00344,-0.05542 -0.0077,-0.05804 -0.0045,-0.0028 -0.0077,-0.04975 -0.0077,-0.114957 0,-0.06061 -0.00296,-0.112031 -0.00663,-0.114258 -0.00355,-0.0021 -0.009,-0.05502 -0.011999,-0.117314 -0.00296,-0.06231 -0.00877,-0.116557 -0.012615,-0.120557 -0.00391,-0.0039 -0.00723,-0.02235 -0.00723,-0.04078 0,-0.03353 -0.012733,-0.05549 -0.032029,-0.05528 -0.010187,1.11e-4 -0.065729,0.01764 -0.094418,0.02979 -0.1233814,0.0522 -0.1949592,0.09051 -0.2039532,0.109093 -0.00284,0.0058 -0.01579,0.03248 -0.028914,0.05942 -0.013136,0.02694 -0.02388,0.0528 -0.023892,0.05747 -1.3e-5,0.0046 -0.012094,0.03244 -0.026829,0.0617 -0.014735,0.02926 -0.026806,0.0565 -0.026806,0.06055 0,0.004 -0.009,0.02665 -0.019947,0.05026 -0.050934,0.109532 -0.059534,0.128453 -0.066463,0.146369 -0.00403,0.01054 -0.012165,0.02832 -0.017981,0.0395 -0.0058,0.01125 -0.010542,0.02536 -0.010542,0.0315 0,0.0098 -0.035986,0.08939 -0.054559,0.120594 -0.00367,0.0064 -0.00888,0.01667 -0.011253,0.02299 -0.00237,0.0064 -0.00758,0.01748 -0.011371,0.0248 -0.00391,0.0075 -0.00723,0.0184 -0.00723,0.02459 0,0.0063 -0.00948,0.02715 -0.021072,0.04653 -0.018194,0.03043 -0.030596,0.03989 -0.090805,0.06928 -0.038355,0.01872 -0.075003,0.03404 -0.081447,0.03404 -0.00651,0 -0.015943,0.0051 -0.02112,0.01137 -0.030703,0.03699 -0.1025078,0.04594 -0.1285399,0.01599 -0.016583,-0.01907 -0.019852,-0.04429 -0.037644,-0.290067 -0.00272,-0.03702 -0.00782,-0.06913 -0.011371,-0.07133 -0.00355,-0.0021 -0.00651,-0.02602 -0.00651,-0.05294 0,-0.0269 -0.00296,-0.05071 -0.00651,-0.05291 -0.00355,-0.0021 -0.00877,-0.04982 -0.01149,-0.105824 -0.00284,-0.056 -0.00723,-0.109592 -0.00971,-0.119079 -0.00474,-0.01761 -0.028653,-0.02373 -0.037407,-0.0095 -0.00261,0.0041 -0.012947,0.0077 -0.022991,0.0077 -0.010068,0 -0.020385,0.0034 -0.022991,0.0077 -0.00746,0.01202 -0.083153,0.009 -0.109994,-0.0044 -0.048731,-0.02431 -0.1160706,-0.141707 -0.1160706,-0.202325 0,-0.04691 0.01297,-0.07143 0.064793,-0.122518 0.024176,-0.02383 0.042453,-0.04861 0.042382,-0.05747 -6.4e-5,-0.0086 -0.020753,-0.03703 -0.045983,-0.06325 -0.025218,-0.02621 -0.045864,-0.0496 -0.045864,-0.05196 0,-0.0024 -0.022731,-0.02747 -0.050496,-0.05579 -0.027777,-0.02835 -0.066581,-0.0703 -0.086209,-0.09326 -0.019639,-0.02296 -0.065883,-0.07317 -0.1027567,-0.111605 -0.036874,-0.03843 -0.067055,-0.07207 -0.067055,-0.07475 0,-0.0027 -0.024306,-0.02979 -0.054038,-0.06022 -0.060967,-0.06245 -0.066096,-0.08281 -0.026438,-0.105008 0.012639,-0.0071 0.024128,-0.01546 0.02555,-0.01861 0.0013,-0.0031 0.010661,-0.0058 0.020622,-0.0058 0.00995,0 0.020137,-0.0033 0.022683,-0.0075 0.00403,-0.0065 0.024448,-0.01714 0.065255,-0.03396 0.0064,-0.0026 0.021842,-0.01137 0.034481,-0.01943 0.02465,-0.01574 0.106476,-0.02187 0.1146847,-0.0086 0.00249,0.0039 0.019935,0.0095 0.038864,0.01238 0.018917,0.0028 0.036294,0.0082 0.038591,0.01198 0.00225,0.0037 0.014333,0.0069 0.026734,0.0069 0.01239,0 0.022541,0.0034 0.022541,0.0077 0,0.0041 0.00805,0.0077 0.017874,0.0077 0.00983,0 0.020468,0.0026 0.023631,0.0058 0.00699,0.007 0.073665,0.02463 0.1137252,0.0302 0.015837,0.0021 0.030679,0.0072 0.033024,0.0109 0.00237,0.0037 0.010542,0.0069 0.018253,0.0069 0.0077,0 0.02388,0.0051 0.035938,0.01149 0.012082,0.0064 0.031484,0.01149 0.043116,0.01149 0.011608,2.6e-5 0.027161,0.0031 0.034481,0.0069 0.00746,0.0037 0.021925,0.01019 0.032468,0.01438 0.010542,0.0041 0.028192,0.01125 0.039243,0.01561 0.011016,0.0044 0.03608,0.01042 0.055649,0.01334 0.019568,0.003 0.037466,0.0084 0.039764,0.01212 0.00225,0.0037 0.012402,0.0069 0.022435,0.0069 0.010068,0 0.020385,0.0034 0.022991,0.0077 0.00261,0.0041 0.016406,0.0077 0.030655,0.0077 0.01425,0 0.027919,0.0032 0.030383,0.0073 0.00249,0.0039 0.019935,0.0095 0.038864,0.01238 0.018917,0.0028 0.036294,0.0082 0.038591,0.01198 0.00829,0.01334 0.1053033,0.0066 0.1297315,-0.0091 0.012639,-0.0081 0.028156,-0.01676 0.034481,-0.0193 0.0064,-0.0025 0.025289,-0.01102 0.042145,-0.01873 0.016856,-0.0077 0.047037,-0.02104 0.067055,-0.02951 0.034766,-0.01472 0.05033,-0.03927 0.02491,-0.03927 -0.0064,0 -0.01149,-0.0039 -0.01149,-0.0088 0,-0.0047 -0.012935,-0.02347 -0.028736,-0.04149 -0.015802,-0.01803 -0.038757,-0.04428 -0.051017,-0.05834 -0.059084,-0.06779 -0.1566982,-0.174377 -0.1850721,-0.202067 -0.017412,-0.01699 -0.033072,-0.03472 -0.034777,-0.03941 -0.00308,-0.0083 -0.089988,-0.102555 -0.2349295,-0.254692 -0.038982,-0.04093 -0.070893,-0.07703 -0.070893,-0.08022 0,-0.0056 -0.038674,-0.04795 -0.132193,-0.144857 -0.024235,-0.02511 -0.044064,-0.04871 -0.044064,-0.0524 0,-0.0037 -0.00509,-0.0069 -0.01149,-0.0069 -0.0064,0 -0.01149,-0.0037 -0.01149,-0.0082 0,-0.0045 -0.00509,-0.01337 -0.01149,-0.0197 -0.0064,-0.0064 -0.013669,-0.0202 -0.016346,-0.03086 -0.0077,-0.03073 0.02889,-0.05741 0.1657739,-0.120816 0.014747,-0.0069 0.031994,-0.01549 0.038319,-0.01924 0.0064,-0.0037 0.023572,-0.01237 0.038319,-0.01915 0.014747,-0.0069 0.031994,-0.01528 0.038319,-0.01885 0.06651,-0.0376 0.1020932,-0.04635 0.1284676,-0.03164 0.018076,0.01007 0.083994,0.03088 0.097877,0.03088 0.00616,0 0.011253,0.0034 0.011253,0.0077 0,0.0041 0.00675,0.0077 0.014866,0.0077 0.00817,0 0.016998,0.0034 0.019616,0.0077 0.00261,0.0041 0.012947,0.0077 0.022991,0.0077 0.010068,0 0.020184,0.0031 0.022553,0.007 0.00237,0.0038 0.021534,0.0094 0.042595,0.01222 0.021061,0.003 0.040226,0.0084 0.042595,0.01222 0.00237,0.0038 0.014439,0.007 0.026841,0.007 0.01239,0 0.02253,0.0034 0.02253,0.0077 0,0.0041 0.00699,0.0077 0.015328,0.0077 0.00841,0 0.015328,0.0034 0.015328,0.0077 0,0.0041 0.0077,0.0077 0.017235,0.0077 0.00948,2.5e-5 0.027113,0.0052 0.039184,0.01149 0.012082,0.0064 0.029483,0.01149 0.038698,0.01149 0.00924,0 0.020018,0.003 0.024034,0.0066 0.010068,0.0091 0.083354,0.03176 0.1025908,0.03176 0.00877,0 0.015801,0.0034 0.015801,0.0077 0,0.0041 0.00841,0.0077 0.018703,0.0077 0.010305,0 0.020539,0.003 0.02279,0.0066 0.00225,0.0036 0.025278,0.01254 0.051207,0.01983 0.025929,0.0073 0.058882,0.01983 0.07325,0.0279 0.014368,0.0081 0.034434,0.01466 0.044585,0.01466 0.010187,0 0.020611,0.0034 0.023205,0.0077 0.00261,0.0041 0.010542,0.0077 0.017697,0.0077 0.00723,2.7e-5 0.022837,0.0053 0.034896,0.01149 0.01207,0.0064 0.028345,0.01149 0.036163,0.01149 0.00782,0 0.026142,0.0068 0.040712,0.01488 0.01457,0.0082 0.041411,0.01885 0.059629,0.02369 0.032006,0.0085 0.072469,0.02415 0.1000796,0.03872 0.00746,0.0038 0.018881,0.0071 0.025668,0.0071 0.01149,0 0.050946,0.0151 0.081625,0.03131 0.00746,0.0038 0.018123,0.0071 0.024034,0.0071 0.00592,0 0.020599,0.0051 0.032669,0.01149 0.012082,0.0064 0.027789,0.01149 0.034908,0.01149 0.00723,2.6e-5 0.015091,0.0034 0.017697,0.0077 0.00261,0.0041 0.01149,0.0077 0.019722,0.0077 0.00829,0 0.022683,0.0039 0.032124,0.0089 0.037194,0.01924 0.04436,0.02179 0.061097,0.02183 0.00948,2.6e-5 0.027232,0.0052 0.039302,0.01149 0.012082,0.0064 0.02998,0.01149 0.039776,0.01149 0.00983,0 0.019959,0.0034 0.022577,0.0077 0.00261,0.0041 0.01316,0.0077 0.023442,0.0077 0.010305,0 0.018704,0.0032 0.018704,0.0072 0,0.0039 0.016382,0.0096 0.0364,0.01256 0.020018,0.003 0.038118,0.0075 0.040226,0.01007 0.010187,0.01243 0.037952,0.02296 0.04224,0.01603 0.00261,-0.0041 0.012852,-0.0075 0.022885,-0.0075 0.010068,0 0.020386,-0.0034 0.022991,-0.0077 0.00261,-0.0041 0.01149,-0.0077 0.019675,-0.0077 0.00817,0 0.031295,-0.0083 0.051278,-0.01847 0.032077,-0.01631 0.056679,-0.02722 0.112979,-0.05011 0.00841,-0.0033 0.041292,-0.01872 0.073014,-0.03396 0.031709,-0.01526 0.061133,-0.02774 0.065361,-0.02774 0.00415,0 0.01618,-0.006 0.026616,-0.01341 0.018455,-0.01306 0.056963,-0.02952 0.087915,-0.03756 0.016026,-0.0041 0.07601,-0.03023 0.095804,-0.04161 0.013065,-0.0075 0.049051,-0.02463 0.08737,-0.04153 0.014333,-0.0064 0.030892,-0.01149 0.036791,-0.01149 0.00592,0 0.013989,-0.0027 0.018005,-0.0062 0.00391,-0.0033 0.021073,-0.01066 0.037928,-0.01628 0.016856,-0.0056 0.03582,-0.0146 0.042145,-0.02001 0.0064,-0.0054 0.026616,-0.01386 0.045071,-0.01879 0.018467,-0.0049 0.03916,-0.01173 0.045983,-0.01514 0.055056,-0.02753 0.1638586,-0.0463 0.2684086,-0.0463 0.042666,0 0.083556,-0.0031 0.090864,-0.0071 0.012757,-0.0069 0.059854,-0.02765 0.1167695,-0.05183 0.014747,-0.0063 0.032799,-0.01456 0.040131,-0.01842 0.00746,-0.0038 0.019402,-0.0071 0.026829,-0.0071 0.00746,-2.7e-5 0.023394,-0.0053 0.035476,-0.01149 0.012082,-0.0064 0.026782,-0.01149 0.032669,-0.01149 0.00592,0 0.018431,-0.0039 0.02786,-0.0089 0.032337,-0.01671 0.040688,-0.01986 0.067197,-0.02528 0.029174,-0.006 0.071663,-0.01826 0.095543,-0.02765 0.00841,-0.0032 0.02568,-0.0083 0.038319,-0.0109 0.012639,-0.0027 0.042536,-0.009 0.066439,-0.01399 0.023904,-0.005 0.04603,-0.01173 0.049181,-0.01485 0.00308,-0.0031 0.013575,-0.0058 0.023146,-0.0058 0.0096,0 0.01956,-0.0034 0.02216,-0.0077 0.0026,-0.0041 0.01984,-0.0077 0.03832,-0.0077 0.01847,0 0.03556,-0.0031 0.03799,-0.0072 0.0024,-0.0039 0.02336,-0.0095 0.04654,-0.01239 0.02317,-0.003 0.04401,-0.0083 0.0463,-0.01203 0.0023,-0.0037 0.02101,-0.0069 0.0416,-0.0069 0.02057,0 0.03954,-0.0034 0.04214,-0.0077 0.0026,-0.0041 0.0201,-0.0077 0.03886,-0.0077 0.01877,0 0.04013,-0.0032 0.04744,-0.0072 0.0075,-0.0039 0.05469,-0.01125 0.105279,-0.01631 0.05058,-0.005 0.121273,-0.01228 0.1571,-0.01613 0.164015,-0.01764 0.160933,-0.01773 0.160933,0.0047 0,0.0158 -0.02568,0.04522 -0.1207,0.13832 -0.139816,0.136969 -0.150264,0.146763 -0.216638,0.203092 -0.02732,0.02318 -0.05082,0.04474 -0.05221,0.0479 -0.0013,0.0031 -0.0068,0.0058 -0.01173,0.0058 -0.005,0 -0.01463,0.006 -0.0213,0.01341 -0.0068,0.0073 -0.02343,0.02202 -0.03723,0.03256 -0.0138,0.01054 -0.03628,0.02864 -0.04996,0.04023 -0.01368,0.01161 -0.02724,0.02107 -0.03012,0.02107 -0.0069,0 -0.0609,0.04036 -0.06425,0.0479 -0.0013,0.0031 -0.006,0.0058 -0.01019,0.0058 -0.0062,0 -0.05366,0.03309 -0.117894,0.08205 -0.0158,0.01203 -0.05377,0.03395 -0.076923,0.04437 -0.012971,0.0059 -0.028061,0.016 -0.033498,0.02258 -0.00545,0.0066 -0.014652,0.01197 -0.020468,0.01197 -0.0058,0 -0.010542,0.0028 -0.010542,0.0064 0,0.0034 -0.038793,0.02632 -0.086209,0.05066 -0.047416,0.02434 -0.094844,0.04891 -0.1053744,0.05456 -0.010542,0.0057 -0.038118,0.01866 -0.06131,0.02889 -0.049015,0.02162 -0.090959,0.0412 -0.1072933,0.05008 -0.03454,0.01882 -0.046883,0.02396 -0.057378,0.02396 -0.0064,0 -0.011608,0.0034 -0.011608,0.0077 0,0.0041 -0.00379,0.0077 -0.00841,0.0077 -0.00983,0 -0.056004,0.0195 -0.083544,0.03527 -0.010542,0.006 -0.041576,0.02196 -0.068974,0.03537 -0.027398,0.01341 -0.050958,0.02715 -0.052356,0.03051 -0.0013,0.0033 -0.00628,0.0062 -0.010779,0.0062 -0.00794,0 -0.082324,0.03274 -0.1055047,0.04642 -0.0064,0.0037 -0.02356,0.01243 -0.038319,0.01931 -0.014747,0.007 -0.05046,0.02422 -0.079339,0.03853 -0.02889,0.01431 -0.057331,0.02601 -0.063229,0.02601 -0.00592,0 -0.010661,0.0034 -0.010661,0.0077 0,0.0041 -0.00355,0.0077 -0.00817,0.0077 -0.012212,0 -0.094939,0.03995 -0.097876,0.04729 -0.0013,0.0034 -0.00865,0.0064 -0.01605,0.0064 -0.00746,0 -0.047665,0.01723 -0.089419,0.03831 -0.041754,0.02107 -0.080215,0.03832 -0.085486,0.03832 -0.00533,5e-6 -0.00948,0.0034 -0.00948,0.0077 0,0.0041 -0.00699,0.0077 -0.015328,0.0077 -0.00841,0 -0.015328,0.0027 -0.015328,0.0062 0,0.0033 -0.012935,0.01066 -0.028736,0.01622 -0.070775,0.02484 -0.11703,0.05371 -0.1167576,0.07288 6.51e-5,0.0045 -0.00912,0.02721 -0.020338,0.05039 -0.011253,0.02318 -0.023015,0.04904 -0.026142,0.05747 -0.0032,0.0084 -0.014309,0.03429 -0.024875,0.05747 -0.010542,0.02318 -0.021392,0.0496 -0.024093,0.0587 -0.00272,0.0091 -0.00995,0.02074 -0.016098,0.02585 -0.00616,0.0051 -0.011253,0.01415 -0.011253,0.0201 0,0.0059 -0.012082,0.03568 -0.026829,0.06608 -0.014747,0.03041 -0.026829,0.0587 -0.026829,0.06287 0,0.0041 -0.00829,0.02487 -0.018384,0.04601 -0.042263,0.08839 -0.058266,0.124706 -0.058266,0.13229 0,0.0044 -0.00971,0.02668 -0.021783,0.04942 -0.011987,0.02277 -0.024271,0.05135 -0.027327,0.06354 -0.00308,0.01218 -0.012224,0.0315 -0.020362,0.04295 -0.00817,0.01137 -0.014818,0.02447 -0.014818,0.02895 0,0.0045 -0.00486,0.01946 -0.010898,0.03331 -0.00604,0.01384 -0.018135,0.04242 -0.027019,0.06349 -0.00888,0.02107 -0.019462,0.04351 -0.023501,0.04982 -0.012876,0.02011 -0.030572,0.0628 -0.030572,0.07374 0,0.0058 -0.00261,0.01054 -0.0058,0.01054 -0.00699,0 -0.021854,0.03308 -0.029435,0.06514 -0.00296,0.01264 -0.00746,0.02472 -0.00995,0.02683 -0.00782,0.0066 -0.039053,0.06993 -0.039089,0.07928 -1.9e-5,0.0049 -0.00865,0.02582 -0.019154,0.04655 -0.010542,0.02074 -0.019118,0.04402 -0.019118,0.05174 0,0.0077 -0.0032,0.01401 -0.00711,0.01401 -0.00379,0 -0.00936,0.0103 -0.012094,0.0229 -0.00272,0.01259 -0.00817,0.02487 -0.012118,0.02728 -0.00379,0.0024 -0.00711,0.01251 -0.00711,0.02243 0,0.0099 -0.00261,0.01921 -0.0058,0.02062 -0.00841,0.0037 -0.032562,0.04916 -0.032562,0.06116 0,0.0057 -0.012343,0.03525 -0.027445,0.0658 -0.024105,0.0488 -0.057638,0.08636 -0.077076,0.08636 -0.00557,0 -0.063905,0.02624 -0.1042017,0.04685 -0.00746,0.0037 -0.020042,0.0069 -0.028286,0.0069 -0.00829,0 -0.016879,0.0031 -0.019189,0.0069 -0.00225,0.0037 -0.013243,0.0091 -0.024282,0.01186 -0.011016,0.0027 -0.03608,0.01212 -0.055625,0.02077 -0.052462,0.02322 -0.062341,0.02697 -0.1059548,0.04034 -0.051444,0.01575 -0.050152,0.01593 -0.073393,-0.01007 z M 9.5064265,18.26237 c -0.011371,-0.006 -0.029269,-0.02197 -0.039954,-0.03558 -0.020125,-0.02562 -0.05983,-0.07246 -0.083212,-0.09815 -0.00734,-0.0081 -0.013409,-0.01685 -0.013409,-0.01945 0,-0.0058 -0.078273,-0.09777 -0.086209,-0.1013 -0.00308,-0.0013 -0.0058,-0.007 -0.0058,-0.01222 0,-0.0053 -0.00699,-0.01591 -0.015328,-0.02355 -0.00841,-0.0076 -0.015328,-0.01811 -0.015328,-0.02329 0,-0.01257 -0.022601,-0.08819 -0.031354,-0.10496 -0.00948,-0.0179 -0.00888,-0.07275 7.297e-4,-0.07865 0.00415,-0.0026 0.00782,-0.01403 0.00794,-0.02536 2.251e-4,-0.01861 0.014226,-0.06392 0.036069,-0.116734 0.00438,-0.01066 0.013586,-0.02407 0.02035,-0.02967 0.00687,-0.0057 0.012295,-0.0141 0.012307,-0.01885 8.3e-6,-0.0097 0.064532,-0.05953 0.1019393,-0.07869 0.01348,-0.007 0.026237,-0.01508 0.028345,-0.01817 0.00675,-0.0098 0.083331,-0.0229 0.134376,-0.0229 0.051124,0 0.1185154,0.01398 0.1185154,0.02457 0,0.0033 0.00533,0.0062 0.011857,0.0062 0.032799,0 0.1459073,0.113122 0.1685445,0.168596 0.00261,0.0064 0.00794,0.01748 0.011857,0.0248 0.00391,0.0075 0.00723,0.02522 0.00723,0.03978 0,0.01457 0.00343,0.02859 0.0077,0.03121 0.00415,0.0026 0.0077,0.01812 0.0077,0.03448 0,0.01636 -0.00344,0.03189 -0.0077,0.03448 -0.00415,0.0026 -0.0077,0.01837 -0.0077,0.03504 0,0.01667 -0.0032,0.03631 -0.00734,0.04361 -0.00403,0.0075 -0.013373,0.02709 -0.020824,0.04396 -0.00746,0.01686 -0.019923,0.03755 -0.027729,0.04598 -0.034398,0.03715 -0.1280803,0.15594 -0.1280803,0.162418 0,0.0039 -0.010305,0.01704 -0.022991,0.02917 -0.012639,0.01212 -0.022991,0.02654 -0.022991,0.0321 0,0.0056 -0.00474,0.01007 -0.010661,0.01007 -0.0058,0 -0.012295,0.0065 -0.014333,0.01427 -0.00462,0.01754 -0.047013,0.03967 -0.073949,0.03857 -0.011016,-4.37e-4 -0.029139,-0.0057 -0.040416,-0.01161 z m 0.1214554,-0.357651 c 0.037158,-0.02803 0.048506,-0.05302 0.048506,-0.106677 0,-0.04425 -0.00746,-0.06109 -0.044609,-0.0999 -0.026675,-0.02791 -0.029056,-0.02874 -0.081554,-0.02874 -0.052723,0 -0.054879,7.83e-4 -0.085676,0.03064 -0.052498,0.05095 -0.058634,0.122641 -0.016062,0.187611 0.016382,0.02501 0.023216,0.02938 0.066961,0.04289 0.033403,0.0103 0.078131,3.5e-5 0.1124341,-0.02585 z m -1.841125,-2.181466 c -0.012959,-0.0076 -0.037762,-0.01629 -0.055116,-0.01921 -0.046919,-0.0079 -0.05264,-0.01955 -0.029186,-0.05918 0.010779,-0.01819 0.025657,-0.04515 0.033084,-0.0599 0.00734,-0.01475 0.019343,-0.03332 0.026509,-0.04127 0.00723,-0.0079 0.018467,-0.0252 0.025124,-0.03832 0.02061,-0.0407 0.029482,-0.05275 0.072978,-0.09892 0.023181,-0.02463 0.043566,-0.04879 0.045308,-0.05372 0.00403,-0.01137 0.2125445,-0.217757 0.2469416,-0.244379 0.01419,-0.01102 0.033403,-0.02721 0.042702,-0.03607 0.00936,-0.0089 0.019663,-0.01614 0.022991,-0.0162 0.00332,-5.2e-5 0.021594,-0.01469 0.040558,-0.03254 0.032858,-0.03092 0.051064,-0.04435 0.076626,-0.05656 0.0064,-0.0031 0.013219,-0.0075 0.015328,-0.0099 0.00948,-0.0109 0.060955,-0.04649 0.067268,-0.04649 0.00379,0 0.013492,-0.0072 0.021428,-0.01595 0.00794,-0.0088 0.024863,-0.02094 0.037596,-0.02703 0.0251,-0.01199 0.035855,-0.01843 0.088294,-0.05263 0.018964,-0.01238 0.058622,-0.03499 0.088128,-0.05026 0.083153,-0.043 0.1070682,-0.05671 0.10984,-0.06293 0.0013,-0.0031 0.00971,-0.0058 0.018668,-0.0058 0.00888,0 0.023228,-0.0064 0.031935,-0.01404 0.017318,-0.01537 0.077538,-0.0396 0.098457,-0.0396 0.00734,0 0.01316,-0.0034 0.01316,-0.0077 0,-0.0041 0.00699,-0.0077 0.015328,-0.0077 0.00841,0 0.015328,-0.0034 0.015328,-0.0077 0,-0.0041 0.00699,-0.0077 0.01528,-0.0077 0.018881,0 0.076685,-0.02446 0.076685,-0.03247 0,-0.0032 0.010068,-0.0059 0.02253,-0.0059 0.01239,0 0.024496,-0.0031 0.026877,-0.0071 0.00237,-0.0038 0.018076,-0.0094 0.034884,-0.01216 0.016808,-0.0028 0.032527,-0.0083 0.034896,-0.01216 0.00237,-0.0038 0.013776,-0.0071 0.025325,-0.0071 0.01149,0 0.024282,-0.003 0.028286,-0.0065 0.00391,-0.0034 0.027966,-0.01262 0.053256,-0.02015 0.025289,-0.0075 0.049252,-0.01669 0.053256,-0.02035 0.00391,-0.0037 0.017554,-0.0068 0.03011,-0.0068 0.021902,0 0.053528,-0.0084 0.098634,-0.02611 0.014321,-0.0057 0.021073,-0.01382 0.021073,-0.02557 0,-0.0095 0.00344,-0.01729 0.0077,-0.01729 0.00415,0 0.0077,-0.0077 0.00782,-0.01723 1.493e-4,-0.02216 0.017673,-0.07259 0.029246,-0.08417 0.00486,-0.0049 0.009,-0.01453 0.009,-0.02136 0,-0.0069 0.012082,-0.02651 0.026829,-0.04376 0.014747,-0.01722 0.026829,-0.03468 0.026829,-0.0388 0,-0.004 0.00723,-0.0094 0.015896,-0.01161 0.00877,-0.0023 0.017685,-0.01102 0.019876,-0.01937 0.00249,-0.0096 0.025278,-0.02551 0.062661,-0.0436 0.032278,-0.01561 0.064663,-0.03145 0.071995,-0.03518 0.00734,-0.0037 0.02369,-0.0069 0.0364,-0.0069 0.01271,0 0.023098,-0.0034 0.023098,-0.0077 0,-0.0044 0.024117,-0.0077 0.057022,-0.0077 0.031354,0 0.059155,0.0034 0.061761,0.0077 0.00261,0.0041 0.013207,0.0077 0.023548,0.0077 0.010305,0 0.024792,0.0031 0.032124,0.0071 0.00746,0.0038 0.025384,0.01273 0.040131,0.01971 0.05044,0.02388 0.06517,0.03408 0.102188,0.07072 0.04126,0.04082 0.08173,0.09692 0.08173,0.113228 0,0.0059 0.0031,0.01259 0.007,0.01495 0.0038,0.0024 0.0094,0.02154 0.01223,0.04261 0.003,0.02107 0.0084,0.03831 0.01222,0.03831 0.0089,0 0.0092,0.128002 2.91e-4,0.133488 -0.0036,0.0023 -0.0088,0.01724 -0.01137,0.0333 -0.01276,0.07972 -0.10066,0.191542 -0.18648,0.237187 -0.04155,0.0221 -0.1053521,0.0407 -0.1556395,0.04537 -0.070929,0.0066 -0.1175867,-0.0041 -0.2146565,-0.04977 -0.033427,-0.01569 -0.1197484,-0.09983 -0.1299637,-0.126694 -0.0058,-0.01535 -0.012876,-0.01999 -0.030324,-0.01999 -0.012508,0 -0.024863,0.0034 -0.027469,0.0077 -0.00261,0.0041 -0.012461,0.0077 -0.021914,0.0077 -0.00948,0 -0.020445,0.0032 -0.024448,0.0071 -0.00391,0.0038 -0.027528,0.01078 -0.052308,0.01526 -0.024768,0.0045 -0.055293,0.01333 -0.067825,0.01958 -0.012532,0.0063 -0.035393,0.01363 -0.050768,0.01642 -0.015387,0.0027 -0.041553,0.01149 -0.058148,0.01937 -0.016595,0.0079 -0.034742,0.01433 -0.040344,0.01433 -0.00557,0 -0.016133,0.0031 -0.023465,0.0068 -0.00746,0.0037 -0.02709,0.01102 -0.043957,0.0162 -0.016856,0.0053 -0.040996,0.0141 -0.053635,0.01975 -0.012639,0.0057 -0.041956,0.01759 -0.065136,0.02653 -0.053043,0.02048 -0.091421,0.03697 -0.1111193,0.04774 -0.00841,0.0046 -0.02568,0.01353 -0.038319,0.01982 -0.012639,0.0063 -0.029885,0.01496 -0.038319,0.01928 -0.076745,0.03934 -0.099878,0.05199 -0.1104086,0.06041 -0.00675,0.0053 -0.024282,0.01641 -0.039042,0.02451 -0.065361,0.03591 -0.2270607,0.143365 -0.267108,0.177478 -0.015363,0.01308 -0.03184,0.02516 -0.036613,0.02683 -0.024496,0.0085 -0.3107739,0.281674 -0.3178775,0.303281 -0.00154,0.005 -0.020433,0.02739 -0.041778,0.04982 -0.021345,0.02243 -0.04115,0.04594 -0.044005,0.05226 -0.00723,0.01581 -0.022636,0.03949 -0.033688,0.05159 -0.00509,0.0056 -0.021866,0.02552 -0.037336,0.04437 -0.031046,0.03788 -0.046705,0.04147 -0.084326,0.01933 z M 9.9424213,14.6222 c 0.048245,-0.0265 0.059949,-0.03731 0.07806,-0.07205 0.02136,-0.04098 0.02601,-0.07441 0.01635,-0.11748 -0.0095,-0.04188 -0.048802,-0.10451 -0.065764,-0.10451 -0.00616,0 -0.011134,-0.0026 -0.011134,-0.0058 0,-0.01222 -0.051633,-0.02806 -0.091966,-0.02819 -0.057864,-2.04e-4 -0.1039885,0.02372 -0.1421382,0.07377 -0.02908,0.03813 -0.030063,0.04141 -0.029518,0.09755 6.16e-4,0.06221 0.00746,0.08051 0.045355,0.120598 0.056691,0.06 0.1324796,0.07364 0.200755,0.03614 z m -0.7911359,0.741091 c -0.018881,-0.02919 -0.034327,-0.05808 -0.034327,-0.06419 0,-0.0062 -0.00557,-0.01572 -0.012295,-0.02133 -0.00687,-0.0057 -0.015375,-0.01725 -0.01913,-0.02585 -0.00734,-0.01652 -0.02343,-0.0437 -0.029885,-0.05013 -0.00213,-0.0021 -0.009,-0.01418 -0.015174,-0.02683 -0.00628,-0.01264 -0.019154,-0.03366 -0.028736,-0.04671 -0.00948,-0.01305 -0.017401,-0.02604 -0.017401,-0.02889 0,-0.0028 -0.00865,-0.01883 -0.019154,-0.03552 -0.010542,-0.01669 -0.019154,-0.03728 -0.019154,-0.04573 0,-0.0198 0.037454,-0.04359 0.1264469,-0.08031 0.016856,-0.007 0.035843,-0.01543 0.04218,-0.01883 0.0064,-0.0033 0.017555,-0.0032 0.02491,3.65e-4 0.00746,0.0036 0.019402,0.0095 0.026782,0.01288 0.00746,0.0034 0.019248,0.01777 0.026391,0.03174 0.00723,0.01398 0.019213,0.03295 0.026829,0.04215 0.00758,0.0092 0.017543,0.02336 0.022067,0.03148 0.0045,0.0082 0.014866,0.02683 0.022991,0.04159 0.00817,0.01475 0.0165,0.02853 0.018597,0.03064 0.00604,0.006 0.022257,0.03286 0.030205,0.04982 0.00391,0.0084 0.01772,0.03084 0.030608,0.04982 0.012887,0.01896 0.023442,0.03826 0.023477,0.04288 1.78e-5,0.0046 0.00699,0.01464 0.015363,0.02226 0.019118,0.01729 0.021961,0.07281 0.00367,0.07281 -0.0064,0 -0.01759,0.0031 -0.02491,0.0069 -0.00734,0.0037 -0.023667,0.01102 -0.036305,0.0162 -0.012639,0.0053 -0.028156,0.01252 -0.034481,0.01628 -0.0064,0.0037 -0.016666,0.0088 -0.022991,0.01125 -0.0064,0.0024 -0.017483,0.0076 -0.024804,0.01137 -0.00746,0.0039 -0.025491,0.0072 -0.040392,0.0072 -0.025088,0 -0.029613,-0.0039 -0.061417,-0.05307 z"
       id="path2" /><circle
       style="fill:none;stroke:#000000;stroke-width:0.15;stroke-dasharray:none"
       id="circle3"
       cx="31.625341"
       cy="31.62208"
       r="1.1" /><circle
       style="fill:none;stroke:#000000;stroke-width:0.15;stroke-dasharray:none"
       id="circle4"
       cx="2.3779149"
       cy="2.3779151"
       r="1.1" /><circle
       style="fill:none;stroke:#000000;stroke-width:0.15;stroke-dasharray:none"
       id="circle5"
       cx="31.625341"
       cy="2.3779151"
       r="1.1" /><g
       id="g7"
       transform="translate(-0.06421123,5.2353917)"><path
         style="fill:none;stroke:#000000;stroke-width:0.15;stroke-linecap:round;stroke-dasharray:none;marker-end:url(#ConcaveTriangle)"
         d="M 28.975851,8.7891491 V 12.062192"
         id="path5"
         sodipodi:nodetypes="cc" /><path
         style="fill:none;stroke:#000000;stroke-width:0.15;stroke-linecap:round;stroke-dasharray:none;marker-end:url(#ConcaveTriangle)"
         d="M 28.975851,8.7891491 H 25.702809"
         id="path6"
         sodipodi:nodetypes="cc" /><text
         xml:space="preserve"
         style="font-style:normal;font-variant:normal;font-weight:normal;font-stretch:normal;font-size:2.64583px;font-family:Arial;-inkscape-font-specification:Arial;text-align:start;letter-spacing:0.0211667px;writing-mode:lr-tb;direction:ltr;text-anchor:start;fill:#000000;stroke:none;stroke-width:0.15;stroke-linecap:round;stroke-dasharray:none"
         x="28.314394"
         y="15.370068"
         id="text6"><tspan
           sodipodi:role="line"
           id="tspan6"
           style="fill:#000000;stroke:none;stroke-width:0.15"
           x="28.314394"
           y="15.370068">x</tspan></text><text
         xml:space="preserve"
         style="font-style:normal;font-variant:normal;font-weight:normal;font-stretch:normal;font-size:2.64583px;font-family:Arial;-inkscape-font-specification:Arial;text-align:start;letter-spacing:0.0211667px;writing-mode:lr-tb;direction:ltr;text-anchor:start;fill:#000000;stroke:none;stroke-width:0.15;stroke-linecap:round;stroke-dasharray:none"
         x="24.560894"
         y="11.243008"
         id="text7"><tspan
           sodipodi:role="line"
           id="tspan7"
           style="fill:#000000;stroke:none;stroke-width:0.15"
           x="24.560894"
           y="11.243008">y</tspan></text></g><g
       id="g165"
       style="fill:none;stroke:#000000"
       transform="translate(3.4297676,0.85461899)"><rect
         style="fill:none;stroke:#000000;stroke-width:0.15;stroke-linecap:round;stroke-dasharray:none"
         id="rect7"
         width="2.5"
         height="0.60000002"
         x="11.070232"
         y="4.1453805"
         inkscape:tile-cx="12.320232"
         inkscape:tile-cy="4.4453805"
         inkscape:tile-w="2.5"
         inkscape:tile-h="0.60000002"
         inkscape:tile-x0="11.070232"
         inkscape:tile-y0="4.1453805" /><use
         x="0"
         y="0"
         inkscape:tiled-clone-of="#rect7"
         xlink:href="#rect7"
         id="use86"
         style="fill:none;stroke:#000000" /><use
         x="0"
         y="0"
         inkscape:tiled-clone-of="#rect7"
         xlink:href="#rect7"
         transform="translate(0,0.60000002)"
         id="use87"
         style="fill:none;stroke:#000000" /><use
         x="0"
         y="0"
         inkscape:tiled-clone-of="#rect7"
         xlink:href="#rect7"
         transform="translate(0,1.2)"
         id="use88"
         style="fill:none;stroke:#000000" /><use
         x="0"
         y="0"
         inkscape:tiled-clone-of="#rect7"
         xlink:href="#rect7"
         transform="translate(0,1.8000001)"
         id="use89"
         style="fill:none;stroke:#000000" /><use
         x="0"
         y="0"
         inkscape:tiled-clone-of="#rect7"
         xlink:href="#rect7"
         transform="translate(0,2.4000001)"
         id="use90"
         style="fill:none;stroke:#000000" /><use
         x="0"
         y="0"
         inkscape:tiled-clone-of="#rect7"
         xlink:href="#rect7"
         transform="translate(0,3.0000001)"
         id="use91"
         style="fill:none;stroke:#000000" /><use
         x="0"
         y="0"
         inkscape:tiled-clone-of="#rect7"
         xlink:href="#rect7"
         transform="translate(0,3.6000001)"
         id="use92"
         style="fill:none;stroke:#000000" /><use
         x="0"
         y="0"
         inkscape:tiled-clone-of="#rect7"
         xlink:href="#rect7"
         transform="translate(0,4.2000001)"
         id="use93"
         style="fill:none;stroke:#000000" /><use
         x="0"
         y="0"
         inkscape:tiled-clone-of="#rect7"
         xlink:href="#rect7"
         transform="translate(0,4.8000002)"
         id="use94"
         style="fill:none;stroke:#000000" /><use
         x="0"
         y="0"
         inkscape:tiled-clone-of="#rect7"
         xlink:href="#rect7"
         transform="translate(0,5.4000002)"
         id="use95"
         style="fill:none;stroke:#000000" /><use
         x="0"
         y="0"
         inkscape:tiled-clone-of="#rect7"
         xlink:href="#rect7"
         transform="translate(0,6.0000002)"
         id="use96"
         style="fill:none;stroke:#000000" /><use
         x="0"
         y="0"
         inkscape:tiled-clone-of="#rect7"
         xlink:href="#rect7"
         transform="translate(0,6.6000002)"
         id="use97"
         style="fill:none;stroke:#000000" /><use
         x="0"
         y="0"
         inkscape:tiled-clone-of="#rect7"
         xlink:href="#rect7"
         transform="translate(0,7.2000002)"
         id="use98"
         style="fill:none;stroke:#000000" /><use
         x="0"
         y="0"
         inkscape:tiled-clone-of="#rect7"
         xlink:href="#rect7"
         transform="translate(0,7.8000003)"
         id="use99"
         style="fill:none;stroke:#000000" /><use
         x="0"
         y="0"
         inkscape:tiled-clone-of="#rect7"
         xlink:href="#rect7"
         transform="translate(0,8.4000003)"
         id="use100"
         style="fill:none;stroke:#000000" /><use
         x="0"
         y="0"
         inkscape:tiled-clone-of="#rect7"
         xlink:href="#rect7"
         transform="translate(0,9.0000003)"
         id="use101"
         style="fill:none;stroke:#000000" /><use
         x="0"
         y="0"
         inkscape:tiled-clone-of="#rect7"
         xlink:href="#rect7"
         transform="translate(0,9.6000003)"
         id="use102"
         style="fill:none;stroke:#000000" /><use
         x="0"
         y="0"
         inkscape:tiled-clone-of="#rect7"
         xlink:href="#rect7"
         transform="translate(0,10.2)"
         id="use103"
         style="fill:none;stroke:#000000" /><use
         x="0"
         y="0"
         inkscape:tiled-clone-of="#rect7"
         xlink:href="#rect7"
         transform="translate(0,10.8)"
         id="use104"
         style="fill:none;stroke:#000000" /><use
         x="0"
         y="0"
         inkscape:tiled-clone-of="#rect7"
         xlink:href="#rect7"
         transform="translate(0,11.4)"
         id="use105"
         style="fill:none;stroke:#000000" /><use
         x="0"
         y="0"
         inkscape:tiled-clone-of="#rect7"
         xlink:href="#rect7"
         transform="translate(0,12)"
         id="use106"
         style="fill:none;stroke:#000000" /><use
         x="0"
         y="0"
         inkscape:tiled-clone-of="#rect7"
         xlink:href="#rect7"
         transform="translate(0,12.6)"
         id="use107"
         style="fill:none;stroke:#000000" /><use
         x="0"
         y="0"
         inkscape:tiled-clone-of="#rect7"
         xlink:href="#rect7"
         transform="translate(0,13.2)"
         id="use108"
         style="fill:none;stroke:#000000" /><use
         x="0"
         y="0"
         inkscape:tiled-clone-of="#rect7"
         xlink:href="#rect7"
         transform="translate(0,13.8)"
         id="use109"
         style="fill:none;stroke:#000000" /><use
         x="0"
         y="0"
         inkscape:tiled-clone-of="#rect7"
         xlink:href="#rect7"
         transform="translate(0,14.4)"
         id="use110"
         style="fill:none;stroke:#000000" /><use
         x="0"
         y="0"
         inkscape:tiled-clone-of="#rect7"
         xlink:href="#rect7"
         transform="translate(0,15)"
         id="use111"
         style="fill:none;stroke:#000000" /><use
         x="0"
         y="0"
         inkscape:tiled-clone-of="#rect7"
         xlink:href="#rect7"
         transform="translate(0,15.600001)"
         id="use112"
         style="fill:none;stroke:#000000" /><use
         x="0"
         y="0"
         inkscape:tiled-clone-of="#rect7"
         xlink:href="#rect7"
         transform="translate(0,16.200001)"
         id="use113"
         style="fill:none;stroke:#000000" /><use
         x="0"
         y="0"
         inkscape:tiled-clone-of="#rect7"
         xlink:href="#rect7"
         transform="translate(0,16.800001)"
         id="use114"
         style="fill:none;stroke:#000000" /><use
         x="0"
         y="0"
         inkscape:tiled-clone-of="#rect7"
         xlink:href="#rect7"
         transform="translate(0,17.400001)"
         id="use115"
         style="fill:none;stroke:#000000" /><use
         x="0"
         y="0"
         inkscape:tiled-clone-of="#rect7"
         xlink:href="#rect7"
         transform="translate(0,18.000001)"
         id="use116"
         style="fill:none;stroke:#000000" /><use
         x="0"
         y="0"
         inkscape:tiled-clone-of="#rect7"
         xlink:href="#rect7"
         transform="translate(0,18.600001)"
         id="use117"
         style="fill:none;stroke:#000000" /><use
         x="0"
         y="0"
         inkscape:tiled-clone-of="#rect7"
         xlink:href="#rect7"
         transform="translate(0,19.200001)"
         id="use118"
         style="fill:none;stroke:#000000" /><use
         x="0"
         y="0"
         inkscape:tiled-clone-of="#rect7"
         xlink:href="#rect7"
         transform="translate(0,19.800001)"
         id="use119"
         style="fill:none;stroke:#000000" /><use
         x="0"
         y="0"
         inkscape:tiled-clone-of="#rect7"
         xlink:href="#rect7"
         transform="translate(0,20.400001)"
         id="use120"
         style="fill:none;stroke:#000000" /><use
         x="0"
         y="0"
         inkscape:tiled-clone-of="#rect7"
         xlink:href="#rect7"
         transform="translate(0,21.000001)"
         id="use121"
         style="fill:none;stroke:#000000" /><use
         x="0"
         y="0"
         inkscape:tiled-clone-of="#rect7"
         xlink:href="#rect7"
         transform="translate(0,21.600001)"
         id="use122"
         style="fill:none;stroke:#000000" /><use
         x="0"
         y="0"
         inkscape:tiled-clone-of="#rect7"
         xlink:href="#rect7"
         transform="translate(0,22.200001)"
         id="use123"
         style="fill:none;stroke:#000000" /><use
         x="0"
         y="0"
         inkscape:tiled-clone-of="#rect7"
         xlink:href="#rect7"
         transform="translate(0,22.800001)"
         id="use124"
         style="fill:none;stroke:#000000" /><use
         x="0"
         y="0"
         inkscape:tiled-clone-of="#rect7"
         xlink:href="#rect7"
         transform="translate(0,23.400001)"
         id="use125"
         style="fill:none;stroke:#000000" /><use
         x="0"
         y="0"
         inkscape:tiled-clone-of="#rect7"
         xlink:href="#rect7"
         transform="translate(2.5)"
         id="use126"
         style="fill:none;stroke:#000000" /><use
         x="0"
         y="0"
         inkscape:tiled-clone-of="#rect7"
         xlink:href="#rect7"
         transform="translate(2.5,0.60000002)"
         id="use127"
         style="fill:none;stroke:#000000" /><use
         x="0"
         y="0"
         inkscape:tiled-clone-of="#rect7"
         xlink:href="#rect7"
         transform="translate(2.5,1.2)"
         id="use128"
         style="fill:none;stroke:#000000" /><use
         x="0"
         y="0"
         inkscape:tiled-clone-of="#rect7"
         xlink:href="#rect7"
         transform="translate(2.5,1.8000001)"
         id="use129"
         style="fill:none;stroke:#000000" /><use
         x="0"
         y="0"
         inkscape:tiled-clone-of="#rect7"
         xlink:href="#rect7"
         transform="translate(2.5,2.4000001)"
         id="use130"
         style="fill:none;stroke:#000000" /><use
         x="0"
         y="0"
         inkscape:tiled-clone-of="#rect7"
         xlink:href="#rect7"
         transform="translate(2.5,3.0000001)"
         id="use131"
         style="fill:none;stroke:#000000" /><use
         x="0"
         y="0"
         inkscape:tiled-clone-of="#rect7"
         xlink:href="#rect7"
         transform="translate(2.5,3.6000001)"
         id="use132"
         style="fill:none;stroke:#000000" /><use
         x="0"
         y="0"
         inkscape:tiled-clone-of="#rect7"
         xlink:href="#rect7"
         transform="translate(2.5,4.2000001)"
         id="use133"
         style="fill:none;stroke:#000000" /><use
         x="0"
         y="0"
         inkscape:tiled-clone-of="#rect7"
         xlink:href="#rect7"
         transform="translate(2.5,4.8000002)"
         id="use134"
         style="fill:none;stroke:#000000" /><use
         x="0"
         y="0"
         inkscape:tiled-clone-of="#rect7"
         xlink:href="#rect7"
         transform="translate(2.5,5.4000002)"
         id="use135"
         style="fill:none;stroke:#000000" /><use
         x="0"
         y="0"
         inkscape:tiled-clone-of="#rect7"
         xlink:href="#rect7"
         transform="translate(2.5,6.0000002)"
         id="use136"
         style="fill:none;stroke:#000000" /><use
         x="0"
         y="0"
         inkscape:tiled-clone-of="#rect7"
         xlink:href="#rect7"
         transform="translate(2.5,6.6000002)"
         id="use137"
         style="fill:none;stroke:#000000" /><use
         x="0"
         y="0"
         inkscape:tiled-clone-of="#rect7"
         xlink:href="#rect7"
         transform="translate(2.5,7.2000002)"
         id="use138"
         style="fill:none;stroke:#000000" /><use
         x="0"
         y="0"
         inkscape:tiled-clone-of="#rect7"
         xlink:href="#rect7"
         transform="translate(2.5,7.8000003)"
         id="use139"
         style="fill:none;stroke:#000000" /><use
         x="0"
         y="0"
         inkscape:tiled-clone-of="#rect7"
         xlink:href="#rect7"
         transform="translate(2.5,8.4000003)"
         id="use140"
         style="fill:none;stroke:#000000" /><use
         x="0"
         y="0"
         inkscape:tiled-clone-of="#rect7"
         xlink:href="#rect7"
         transform="translate(2.5,9.0000003)"
         id="use141"
         style="fill:none;stroke:#000000" /><use
         x="0"
         y="0"
         inkscape:tiled-clone-of="#rect7"
         xlink:href="#rect7"
         transform="translate(2.5,9.6000003)"
         id="use142"
         style="fill:none;stroke:#000000" /><use
         x="0"
         y="0"
         inkscape:tiled-clone-of="#rect7"
         xlink:href="#rect7"
         transform="translate(2.5,10.2)"
         id="use143"
         style="fill:none;stroke:#000000" /><use
         x="0"
         y="0"
         inkscape:tiled-clone-of="#rect7"
         xlink:href="#rect7"
         transform="translate(2.5,10.8)"
         id="use144"
         style="fill:none;stroke:#000000" /><use
         x="0"
         y="0"
         inkscape:tiled-clone-of="#rect7"
         xlink:href="#rect7"
         transform="translate(2.5,11.4)"
         id="use145"
         style="fill:none;stroke:#000000" /><use
         x="0"
         y="0"
         inkscape:tiled-clone-of="#rect7"
         xlink:href="#rect7"
         transform="translate(2.5,12)"
         id="use146"
         style="fill:none;stroke:#000000" /><use
         x="0"
         y="0"
         inkscape:tiled-clone-of="#rect7"
         xlink:href="#rect7"
         transform="translate(2.5,12.6)"
         id="use147"
         style="fill:none;stroke:#000000" /><use
         x="0"
         y="0"
         inkscape:tiled-clone-of="#rect7"
         xlink:href="#rect7"
         transform="translate(2.5,13.2)"
         id="use148"
         style="fill:none;stroke:#000000" /><use
         x="0"
         y="0"
         inkscape:tiled-clone-of="#rect7"
         xlink:href="#rect7"
         transform="translate(2.5,13.8)"
         id="use149"
         style="fill:none;stroke:#000000" /><use
         x="0"
         y="0"
         inkscape:tiled-clone-of="#rect7"
         xlink:href="#rect7"
         transform="translate(2.5,14.4)"
         id="use150"
         style="fill:none;stroke:#000000" /><use
         x="0"
         y="0"
         inkscape:tiled-clone-of="#rect7"
         xlink:href="#rect7"
         transform="translate(2.5,15)"
         id="use151"
         style="fill:none;stroke:#000000" /><use
         x="0"
         y="0"
         inkscape:tiled-clone-of="#rect7"
         xlink:href="#rect7"
         transform="translate(2.5,15.600001)"
         id="use152"
         style="fill:none;stroke:#000000" /><use
         x="0"
         y="0"
         inkscape:tiled-clone-of="#rect7"
         xlink:href="#rect7"
         transform="translate(2.5,16.200001)"
         id="use153"
         style="fill:none;stroke:#000000" /><use
         x="0"
         y="0"
         inkscape:tiled-clone-of="#rect7"
         xlink:href="#rect7"
         transform="translate(2.5,16.800001)"
         id="use154"
         style="fill:none;stroke:#000000" /><use
         x="0"
         y="0"
         inkscape:tiled-clone-of="#rect7"
         xlink:href="#rect7"
         transform="translate(2.5,17.400001)"
         id="use155"
         style="fill:none;stroke:#000000" /><use
         x="0"
         y="0"
         inkscape:tiled-clone-of="#rect7"
         xlink:href="#rect7"
         transform="translate(2.5,18.000001)"
         id="use156"
         style="fill:none;stroke:#000000" /><use
         x="0"
         y="0"
         inkscape:tiled-clone-of="#rect7"
         xlink:href="#rect7"
         transform="translate(2.5,18.600001)"
         id="use157"
         style="fill:none;stroke:#000000" /><use
         x="0"
         y="0"
         inkscape:tiled-clone-of="#rect7"
         xlink:href="#rect7"
         transform="translate(2.5,19.200001)"
         id="use158"
         style="fill:none;stroke:#000000" /><use
         x="0"
         y="0"
         inkscape:tiled-clone-of="#rect7"
         xlink:href="#rect7"
         transform="translate(2.5,19.800001)"
         id="use159"
         style="fill:none;stroke:#000000" /><use
         x="0"
         y="0"
         inkscape:tiled-clone-of="#rect7"
         xlink:href="#rect7"
         transform="translate(2.5,20.400001)"
         id="use160"
         style="fill:none;stroke:#000000" /><use
         x="0"
         y="0"
         inkscape:tiled-clone-of="#rect7"
         xlink:href="#rect7"
         transform="translate(2.5,21.000001)"
         id="use161"
         style="fill:none;stroke:#000000" /><use
         x="0"
         y="0"
         inkscape:tiled-clone-of="#rect7"
         xlink:href="#rect7"
         transform="translate(2.5,21.600001)"
         id="use162"
         style="fill:none;stroke:#000000" /><use
         x="0"
         y="0"
         inkscape:tiled-clone-of="#rect7"
         xlink:href="#rect7"
         transform="translate(2.5,22.200001)"
         id="use163"
         style="fill:none;stroke:#000000" /><use
         x="0"
         y="0"
         inkscape:tiled-clone-of="#rect7"
         xlink:href="#rect7"
         transform="translate(2.5,22.800001)"
         id="use164"
         style="fill:none;stroke:#000000" /><use
         x="0"
         y="0"
         inkscape:tiled-clone-of="#rect7"
         xlink:href="#rect7"
         transform="translate(2.5,23.400001)"
         id="use165"
         style="fill:none;stroke:#000000" /></g><rect
       style="fill:none;stroke:#000000;stroke-width:0.15;stroke-linecap:round;stroke-dasharray:none"
       id="rect165"
       width="6"
       height="27.237209"
       x="14"
       y="3.499999" /><text
       xml:space="preserve"
       style="font-style:normal;font-variant:normal;font-weight:normal;font-stretch:normal;font-size:2.64583px;font-family:Arial;-inkscape-font-specification:Arial;text-align:end;letter-spacing:0.0211667px;writing-mode:lr-tb;direction:ltr;text-anchor:end;fill:#000000;stroke:none;stroke-width:0.15;stroke-linecap:round;stroke-dasharray:none"
       x="13.191111"
       y="5.2999997"
       id="text166"><tspan
         sodipodi:role="line"
         id="tspan166"
         style="text-align:end;text-anchor:end;fill:#000000;stroke:none;stroke-width:0.15"
         x="13.212277"
         y="5.2999997">1</tspan></text><text
       xml:space="preserve"
       style="font-style:normal;font-variant:normal;font-weight:normal;font-stretch:normal;font-size:2.64583px;font-family:Arial;-inkscape-font-specification:Arial;text-align:start;letter-spacing:0.0211667px;writing-mode:lr-tb;direction:ltr;text-anchor:start;fill:#000000;stroke:none;stroke-width:0.15;stroke-linecap:round;stroke-dasharray:none"
       x="20.728146"
       y="5.2999997"
       id="text167"><tspan
         sodipodi:role="line"
         id="tspan167"
         style="text-align:start;text-anchor:start;fill:#000000;stroke:none;stroke-width:0.15"
         x="20.728146"
         y="5.2999997">2</tspan></text><text
       xml:space="preserve"
       style="font-style:normal;font-variant:normal;font-weight:normal;font-stretch:normal;font-size:2.64583px;font-family:Arial;-inkscape-font-specification:Arial;text-align:end;letter-spacing:0.0211667px;writing-mode:lr-tb;direction:ltr;text-anchor:end;fill:#000000;stroke:none;stroke-width:0.15;stroke-linecap:round;stroke-dasharray:none"
       x="13.191111"
       y="30.60169"
       id="text168"><tspan
         sodipodi:role="line"
         id="tspan168"
         style="text-align:end;text-anchor:end;fill:#000000;stroke:none;stroke-width:0.15"
         x="13.212277"
         y="30.60169">79</tspan></text><text
       xml:space="preserve"
       style="font-style:normal;font-variant:normal;font-weight:normal;font-stretch:normal;font-size:2.64583px;font-family:Arial;-inkscape-font-specification:Arial;text-align:start;letter-spacing:0.0211667px;writing-mode:lr-tb;direction:ltr;text-anchor:start;fill:#000000;stroke:none;stroke-width:0.15;stroke-linecap:round;stroke-dasharray:none"
       x="20.731375"
       y="30.60169"
       id="text169"><tspan
         sodipodi:role="line"
         id="tspan169"
         style="text-align:start;text-anchor:start;fill:#000000;stroke:none;stroke-width:0.15"
         x="20.731375"
         y="30.60169">80</tspan><tspan
         sodipodi:role="line"
         style="text-align:start;text-anchor:start;fill:#000000;stroke:none;stroke-width:0.15"
         x="20.731375"
         y="33.908978"
         id="tspan170" /></text><text
       xml:space="preserve"
       style="font-style:normal;font-variant:normal;font-weight:normal;font-stretch:normal;font-size:2.11667px;font-family:Arial;-inkscape-font-specification:Arial;text-align:center;letter-spacing:0.0211667px;writing-mode:lr-tb;direction:ltr;text-anchor:middle;fill:#000000;stroke:none;stroke-width:0.15;stroke-linecap:round;stroke-dasharray:none"
       x="17.061495"
       y="36.310154"
       id="text171"><tspan
         sodipodi:role="line"
         style="font-style:italic;font-variant:normal;font-weight:normal;font-stretch:normal;font-size:2.11667px;font-family:Arial;-inkscape-font-specification:'Arial Italic';text-align:center;text-anchor:middle;stroke-width:0.15"
         x="17.072079"
         y="36.310154"
         id="tspan172">seen from the top &quot;through&quot; board</tspan></text></g></svg>
